<?xml version="1.0" encoding="UTF-8" standalone="no"?>
<!DOCTYPE svg PUBLIC "-//W3C//DTD SVG 1.1//EN"
 "http://www.w3.org/Graphics/SVG/1.1/DTD/svg11.dtd">
<!-- Generated by graphviz version 9.0.0 (20230911.1827)
 -->
<!-- Title: G Pages: 1 -->
<svg width="1885pt" height="1849pt"
 viewBox="0.00 0.00 1885.45 1849.31" xmlns="http://www.w3.org/2000/svg" xmlns:xlink="http://www.w3.org/1999/xlink">
<g id="graph0" class="graph" transform="scale(1 1) rotate(0) translate(21.6 1827.71)">
<title>G</title>
<polygon fill="#111111" stroke="none" points="-21.6,21.6 -21.6,-1827.71 1863.85,-1827.71 1863.85,21.6 -21.6,21.6"/>
<!-- app/[page]/layout.tsx -->
<g id="node1" class="node">
<title>app/[page]/layout.tsx</title>
<path fill="none" stroke="#c6c5fe" d="M164.83,-1203.11C164.83,-1203.11 40.17,-1203.11 40.17,-1203.11 36.21,-1203.11 32.25,-1199.15 32.25,-1195.19 32.25,-1195.19 32.25,-1187.28 32.25,-1187.28 32.25,-1183.32 36.21,-1179.36 40.17,-1179.36 40.17,-1179.36 164.83,-1179.36 164.83,-1179.36 168.79,-1179.36 172.75,-1183.32 172.75,-1187.28 172.75,-1187.28 172.75,-1195.19 172.75,-1195.19 172.75,-1199.15 168.79,-1203.11 164.83,-1203.11"/>
<text text-anchor="middle" x="102.5" y="-1185.81" font-family="Arial" font-size="14.00" fill="#c6c5fe">app/[page]/layout.tsx</text>
</g>
<!-- components/layout/footer.tsx -->
<g id="node2" class="node">
<title>components/layout/footer.tsx</title>
<path fill="none" stroke="#c6c5fe" d="M468.08,-1203.11C468.08,-1203.11 295.42,-1203.11 295.42,-1203.11 291.46,-1203.11 287.5,-1199.15 287.5,-1195.19 287.5,-1195.19 287.5,-1187.28 287.5,-1187.28 287.5,-1183.32 291.46,-1179.36 295.42,-1179.36 295.42,-1179.36 468.08,-1179.36 468.08,-1179.36 472.04,-1179.36 476,-1183.32 476,-1187.28 476,-1187.28 476,-1195.19 476,-1195.19 476,-1199.15 472.04,-1203.11 468.08,-1203.11"/>
<text text-anchor="middle" x="381.75" y="-1185.81" font-family="Arial" font-size="14.00" fill="#c6c5fe">components/layout/footer.tsx</text>
</g>
<!-- app/[page]/layout.tsx&#45;&gt;components/layout/footer.tsx -->
<g id="edge1" class="edge">
<title>app/[page]/layout.tsx&#45;&gt;components/layout/footer.tsx</title>
<path fill="none" stroke="#757575" d="M173.1,-1191.23C204.09,-1191.23 241.25,-1191.23 275.52,-1191.23"/>
<polygon fill="#757575" stroke="#757575" points="275.5,-1194.73 285.5,-1191.23 275.5,-1187.73 275.5,-1194.73"/>
</g>
<!-- components/layout/footer&#45;menu.tsx -->
<g id="node45" class="node">
<title>components/layout/footer&#45;menu.tsx</title>
<path fill="none" stroke="#c6c5fe" d="M808.46,-1203.11C808.46,-1203.11 596.04,-1203.11 596.04,-1203.11 592.08,-1203.11 588.12,-1199.15 588.12,-1195.19 588.12,-1195.19 588.12,-1187.28 588.12,-1187.28 588.12,-1183.32 592.08,-1179.36 596.04,-1179.36 596.04,-1179.36 808.46,-1179.36 808.46,-1179.36 812.42,-1179.36 816.38,-1183.32 816.38,-1187.28 816.38,-1187.28 816.38,-1195.19 816.38,-1195.19 816.38,-1199.15 812.42,-1203.11 808.46,-1203.11"/>
<text text-anchor="middle" x="702.25" y="-1185.81" font-family="Arial" font-size="14.00" fill="#c6c5fe">components/layout/footer&#45;menu.tsx</text>
</g>
<!-- components/layout/footer.tsx&#45;&gt;components/layout/footer&#45;menu.tsx -->
<g id="edge50" class="edge">
<title>components/layout/footer.tsx&#45;&gt;components/layout/footer&#45;menu.tsx</title>
<path fill="none" stroke="#757575" d="M476.16,-1191.23C507.57,-1191.23 543.14,-1191.23 576.57,-1191.23"/>
<polygon fill="#757575" stroke="#757575" points="576.3,-1194.73 586.3,-1191.23 576.3,-1187.73 576.3,-1194.73"/>
</g>
<!-- components/logo&#45;square.tsx -->
<g id="node46" class="node">
<title>components/logo&#45;square.tsx</title>
<path fill="none" stroke="#c6c5fe" d="M787.46,-803.11C787.46,-803.11 617.04,-803.11 617.04,-803.11 613.08,-803.11 609.12,-799.15 609.12,-795.19 609.12,-795.19 609.12,-787.28 609.12,-787.28 609.12,-783.32 613.08,-779.36 617.04,-779.36 617.04,-779.36 787.46,-779.36 787.46,-779.36 791.42,-779.36 795.38,-783.32 795.38,-787.28 795.38,-787.28 795.38,-795.19 795.38,-795.19 795.38,-799.15 791.42,-803.11 787.46,-803.11"/>
<text text-anchor="middle" x="702.25" y="-785.81" font-family="Arial" font-size="14.00" fill="#c6c5fe">components/logo&#45;square.tsx</text>
</g>
<!-- components/layout/footer.tsx&#45;&gt;components/logo&#45;square.tsx -->
<g id="edge51" class="edge">
<title>components/layout/footer.tsx&#45;&gt;components/logo&#45;square.tsx</title>
<path fill="none" stroke="#757575" d="M426.79,-1178.91C458.78,-1167.54 500.21,-1147.32 522.5,-1114.23 598.03,-1002.13 464.24,-909.12 558.5,-812.23 569.25,-801.18 583.09,-794.23 597.9,-790.05"/>
<polygon fill="#757575" stroke="#757575" points="598.43,-793.52 607.36,-787.82 596.82,-786.71 598.43,-793.52"/>
</g>
<!-- app/[page]/opengraph&#45;image.tsx -->
<g id="node3" class="node">
<title>app/[page]/opengraph&#45;image.tsx</title>
<path fill="none" stroke="#c6c5fe" d="M479.33,-521.11C479.33,-521.11 284.17,-521.11 284.17,-521.11 280.21,-521.11 276.25,-517.15 276.25,-513.19 276.25,-513.19 276.25,-505.28 276.25,-505.28 276.25,-501.32 280.21,-497.36 284.17,-497.36 284.17,-497.36 479.33,-497.36 479.33,-497.36 483.29,-497.36 487.25,-501.32 487.25,-505.28 487.25,-505.28 487.25,-513.19 487.25,-513.19 487.25,-517.15 483.29,-521.11 479.33,-521.11"/>
<text text-anchor="middle" x="381.75" y="-503.81" font-family="Arial" font-size="14.00" fill="#c6c5fe">app/[page]/opengraph&#45;image.tsx</text>
</g>
<!-- components/opengraph&#45;image.tsx -->
<g id="node4" class="node">
<title>components/opengraph&#45;image.tsx</title>
<path fill="none" stroke="#c6c5fe" d="M805.08,-521.11C805.08,-521.11 599.42,-521.11 599.42,-521.11 595.46,-521.11 591.5,-517.15 591.5,-513.19 591.5,-513.19 591.5,-505.28 591.5,-505.28 591.5,-501.32 595.46,-497.36 599.42,-497.36 599.42,-497.36 805.08,-497.36 805.08,-497.36 809.04,-497.36 813,-501.32 813,-505.28 813,-505.28 813,-513.19 813,-513.19 813,-517.15 809.04,-521.11 805.08,-521.11"/>
<text text-anchor="middle" x="702.25" y="-503.81" font-family="Arial" font-size="14.00" fill="#c6c5fe">components/opengraph&#45;image.tsx</text>
</g>
<!-- app/[page]/opengraph&#45;image.tsx&#45;&gt;components/opengraph&#45;image.tsx -->
<g id="edge2" class="edge">
<title>app/[page]/opengraph&#45;image.tsx&#45;&gt;components/opengraph&#45;image.tsx</title>
<path fill="none" stroke="#757575" d="M487.48,-509.23C517.11,-509.23 549.61,-509.23 580.12,-509.23"/>
<polygon fill="#757575" stroke="#757575" points="579.75,-512.73 589.75,-509.23 579.75,-505.73 579.75,-512.73"/>
</g>
<!-- components/icons/logo.tsx -->
<g id="node44" class="node">
<title>components/icons/logo.tsx</title>
<path fill="none" stroke="#cfffac" d="M1089.21,-597.11C1089.21,-597.11 929.29,-597.11 929.29,-597.11 925.33,-597.11 921.38,-593.15 921.38,-589.19 921.38,-589.19 921.38,-581.28 921.38,-581.28 921.38,-577.32 925.33,-573.36 929.29,-573.36 929.29,-573.36 1089.21,-573.36 1089.21,-573.36 1093.17,-573.36 1097.12,-577.32 1097.12,-581.28 1097.12,-581.28 1097.12,-589.19 1097.12,-589.19 1097.12,-593.15 1093.17,-597.11 1089.21,-597.11"/>
<text text-anchor="middle" x="1009.25" y="-579.81" font-family="Arial" font-size="14.00" fill="#cfffac">components/icons/logo.tsx</text>
</g>
<!-- components/opengraph&#45;image.tsx&#45;&gt;components/icons/logo.tsx -->
<g id="edge69" class="edge">
<title>components/opengraph&#45;image.tsx&#45;&gt;components/icons/logo.tsx</title>
<path fill="none" stroke="#757575" d="M752.59,-521.53C805.78,-534.78 890.48,-555.89 947.67,-570.14"/>
<polygon fill="#757575" stroke="#757575" points="946.71,-573.51 957.26,-572.53 948.4,-566.71 946.71,-573.51"/>
</g>
<!-- app/[page]/page.tsx -->
<g id="node5" class="node">
<title>app/[page]/page.tsx</title>
<path fill="none" stroke="#c6c5fe" d="M441.08,-1362.11C441.08,-1362.11 322.42,-1362.11 322.42,-1362.11 318.46,-1362.11 314.5,-1358.15 314.5,-1354.19 314.5,-1354.19 314.5,-1346.28 314.5,-1346.28 314.5,-1342.32 318.46,-1338.36 322.42,-1338.36 322.42,-1338.36 441.08,-1338.36 441.08,-1338.36 445.04,-1338.36 449,-1342.32 449,-1346.28 449,-1346.28 449,-1354.19 449,-1354.19 449,-1358.15 445.04,-1362.11 441.08,-1362.11"/>
<text text-anchor="middle" x="381.75" y="-1344.81" font-family="Arial" font-size="14.00" fill="#c6c5fe">app/[page]/page.tsx</text>
</g>
<!-- components/prose.tsx -->
<g id="node6" class="node">
<title>components/prose.tsx</title>
<path fill="none" stroke="#cfffac" d="M768.71,-1477.11C768.71,-1477.11 635.79,-1477.11 635.79,-1477.11 631.83,-1477.11 627.88,-1473.15 627.88,-1469.19 627.88,-1469.19 627.88,-1461.28 627.88,-1461.28 627.88,-1457.32 631.83,-1453.36 635.79,-1453.36 635.79,-1453.36 768.71,-1453.36 768.71,-1453.36 772.67,-1453.36 776.62,-1457.32 776.62,-1461.28 776.62,-1461.28 776.62,-1469.19 776.62,-1469.19 776.62,-1473.15 772.67,-1477.11 768.71,-1477.11"/>
<text text-anchor="middle" x="702.25" y="-1459.81" font-family="Arial" font-size="14.00" fill="#cfffac">components/prose.tsx</text>
</g>
<!-- app/[page]/page.tsx&#45;&gt;components/prose.tsx -->
<g id="edge3" class="edge">
<title>app/[page]/page.tsx&#45;&gt;components/prose.tsx</title>
<path fill="none" stroke="#757575" d="M449.32,-1347.99C474.19,-1350.13 501.48,-1356.34 522.5,-1371.23 550.4,-1391.01 530.91,-1419.03 558.5,-1439.23 575.22,-1451.48 595.94,-1458.54 616.35,-1462.48"/>
<polygon fill="#757575" stroke="#757575" points="615.7,-1465.92 626.14,-1464.11 616.86,-1459.02 615.7,-1465.92"/>
</g>
<!-- app/api/revalidate/route.ts -->
<g id="node7" class="node">
<title>app/api/revalidate/route.ts</title>
<path fill="none" stroke="#cfffac" d="M180.21,-1554.11C180.21,-1554.11 24.79,-1554.11 24.79,-1554.11 20.83,-1554.11 16.88,-1550.15 16.88,-1546.19 16.88,-1546.19 16.88,-1538.28 16.88,-1538.28 16.88,-1534.32 20.83,-1530.36 24.79,-1530.36 24.79,-1530.36 180.21,-1530.36 180.21,-1530.36 184.17,-1530.36 188.12,-1534.32 188.12,-1538.28 188.12,-1538.28 188.12,-1546.19 188.12,-1546.19 188.12,-1550.15 184.17,-1554.11 180.21,-1554.11"/>
<text text-anchor="middle" x="102.5" y="-1536.81" font-family="Arial" font-size="14.00" fill="#cfffac">app/api/revalidate/route.ts</text>
</g>
<!-- app/chat/page.tsx -->
<g id="node8" class="node">
<title>app/chat/page.tsx</title>
<path fill="none" stroke="#cfffac" d="M155.83,-1596.11C155.83,-1596.11 49.17,-1596.11 49.17,-1596.11 45.21,-1596.11 41.25,-1592.15 41.25,-1588.19 41.25,-1588.19 41.25,-1580.28 41.25,-1580.28 41.25,-1576.32 45.21,-1572.36 49.17,-1572.36 49.17,-1572.36 155.83,-1572.36 155.83,-1572.36 159.79,-1572.36 163.75,-1576.32 163.75,-1580.28 163.75,-1580.28 163.75,-1588.19 163.75,-1588.19 163.75,-1592.15 159.79,-1596.11 155.83,-1596.11"/>
<text text-anchor="middle" x="102.5" y="-1578.81" font-family="Arial" font-size="14.00" fill="#cfffac">app/chat/page.tsx</text>
</g>
<!-- app/error.tsx -->
<g id="node9" class="node">
<title>app/error.tsx</title>
<path fill="none" stroke="#cfffac" d="M140.08,-1638.11C140.08,-1638.11 64.92,-1638.11 64.92,-1638.11 60.96,-1638.11 57,-1634.15 57,-1630.19 57,-1630.19 57,-1622.28 57,-1622.28 57,-1618.32 60.96,-1614.36 64.92,-1614.36 64.92,-1614.36 140.08,-1614.36 140.08,-1614.36 144.04,-1614.36 148,-1618.32 148,-1622.28 148,-1622.28 148,-1630.19 148,-1630.19 148,-1634.15 144.04,-1638.11 140.08,-1638.11"/>
<text text-anchor="middle" x="102.5" y="-1620.81" font-family="Arial" font-size="14.00" fill="#cfffac">app/error.tsx</text>
</g>
<!-- app/globals.css -->
<g id="node10" class="node">
<title>app/globals.css</title>
<path fill="none" stroke="#cfffac" d="M1318.21,-1321.11C1318.21,-1321.11 1225.04,-1321.11 1225.04,-1321.11 1221.08,-1321.11 1217.12,-1317.15 1217.12,-1313.19 1217.12,-1313.19 1217.12,-1305.28 1217.12,-1305.28 1217.12,-1301.32 1221.08,-1297.36 1225.04,-1297.36 1225.04,-1297.36 1318.21,-1297.36 1318.21,-1297.36 1322.17,-1297.36 1326.12,-1301.32 1326.12,-1305.28 1326.12,-1305.28 1326.12,-1313.19 1326.12,-1313.19 1326.12,-1317.15 1322.17,-1321.11 1318.21,-1321.11"/>
<text text-anchor="middle" x="1271.62" y="-1303.81" font-family="Arial" font-size="14.00" fill="#cfffac">app/globals.css</text>
</g>
<!-- app/layout.tsx -->
<g id="node11" class="node">
<title>app/layout.tsx</title>
<path fill="none" stroke="#c6c5fe" d="M1050.96,-1321.11C1050.96,-1321.11 967.54,-1321.11 967.54,-1321.11 963.58,-1321.11 959.62,-1317.15 959.62,-1313.19 959.62,-1313.19 959.62,-1305.28 959.62,-1305.28 959.62,-1301.32 963.58,-1297.36 967.54,-1297.36 967.54,-1297.36 1050.96,-1297.36 1050.96,-1297.36 1054.92,-1297.36 1058.88,-1301.32 1058.88,-1305.28 1058.88,-1305.28 1058.88,-1313.19 1058.88,-1313.19 1058.88,-1317.15 1054.92,-1321.11 1050.96,-1321.11"/>
<text text-anchor="middle" x="1009.25" y="-1303.81" font-family="Arial" font-size="14.00" fill="#c6c5fe">app/layout.tsx</text>
</g>
<!-- app/layout.tsx&#45;&gt;app/globals.css -->
<g id="edge4" class="edge">
<title>app/layout.tsx&#45;&gt;app/globals.css</title>
<path fill="none" stroke="#757575" d="M1059.22,-1309.23C1100.56,-1309.23 1160.07,-1309.23 1205.43,-1309.23"/>
<polygon fill="#757575" stroke="#757575" points="1205.42,-1312.73 1215.42,-1309.23 1205.42,-1305.73 1205.42,-1312.73"/>
</g>
<!-- lib/utils.ts -->
<g id="node12" class="node">
<title>lib/utils.ts</title>
<path fill="none" stroke="#cfffac" d="M1299.46,-1098.11C1299.46,-1098.11 1243.79,-1098.11 1243.79,-1098.11 1239.83,-1098.11 1235.88,-1094.15 1235.88,-1090.19 1235.88,-1090.19 1235.88,-1082.28 1235.88,-1082.28 1235.88,-1078.32 1239.83,-1074.36 1243.79,-1074.36 1243.79,-1074.36 1299.46,-1074.36 1299.46,-1074.36 1303.42,-1074.36 1307.38,-1078.32 1307.38,-1082.28 1307.38,-1082.28 1307.38,-1090.19 1307.38,-1090.19 1307.38,-1094.15 1303.42,-1098.11 1299.46,-1098.11"/>
<text text-anchor="middle" x="1271.62" y="-1080.81" font-family="Arial" font-size="14.00" fill="#cfffac">lib/utils.ts</text>
</g>
<!-- app/layout.tsx&#45;&gt;lib/utils.ts -->
<g id="edge5" class="edge">
<title>app/layout.tsx&#45;&gt;lib/utils.ts</title>
<path fill="none" stroke="#757575" d="M1059.14,-1307.77C1084.05,-1305 1113.78,-1298.38 1136.5,-1283.23 1202.44,-1239.27 1244.79,-1150.81 1261.94,-1109.05"/>
<polygon fill="#757575" stroke="#757575" points="1265.19,-1110.35 1265.63,-1099.77 1258.68,-1107.77 1265.19,-1110.35"/>
</g>
<!-- app/opengraph&#45;image.tsx -->
<g id="node13" class="node">
<title>app/opengraph&#45;image.tsx</title>
<path fill="none" stroke="#c6c5fe" d="M458.71,-605.11C458.71,-605.11 304.79,-605.11 304.79,-605.11 300.83,-605.11 296.88,-601.15 296.88,-597.19 296.88,-597.19 296.88,-589.28 296.88,-589.28 296.88,-585.32 300.83,-581.36 304.79,-581.36 304.79,-581.36 458.71,-581.36 458.71,-581.36 462.67,-581.36 466.62,-585.32 466.62,-589.28 466.62,-589.28 466.62,-597.19 466.62,-597.19 466.62,-601.15 462.67,-605.11 458.71,-605.11"/>
<text text-anchor="middle" x="381.75" y="-587.81" font-family="Arial" font-size="14.00" fill="#c6c5fe">app/opengraph&#45;image.tsx</text>
</g>
<!-- app/opengraph&#45;image.tsx&#45;&gt;components/opengraph&#45;image.tsx -->
<g id="edge6" class="edge">
<title>app/opengraph&#45;image.tsx&#45;&gt;components/opengraph&#45;image.tsx</title>
<path fill="none" stroke="#757575" d="M466.79,-589.57C485.85,-586.33 505.47,-580.97 522.5,-572.23 542.91,-561.76 538.25,-546.03 558.5,-535.23 565.92,-531.28 573.83,-527.92 581.98,-525.05"/>
<polygon fill="#757575" stroke="#757575" points="582.92,-528.43 591.37,-522.04 580.77,-521.76 582.92,-528.43"/>
</g>
<!-- app/page.tsx -->
<g id="node14" class="node">
<title>app/page.tsx</title>
<path fill="none" stroke="#c6c5fe" d="M141.21,-1512.11C141.21,-1512.11 63.79,-1512.11 63.79,-1512.11 59.83,-1512.11 55.88,-1508.15 55.88,-1504.19 55.88,-1504.19 55.88,-1496.28 55.88,-1496.28 55.88,-1492.32 59.83,-1488.36 63.79,-1488.36 63.79,-1488.36 141.21,-1488.36 141.21,-1488.36 145.17,-1488.36 149.12,-1492.32 149.12,-1496.28 149.12,-1496.28 149.12,-1504.19 149.12,-1504.19 149.12,-1508.15 145.17,-1512.11 141.21,-1512.11"/>
<text text-anchor="middle" x="102.5" y="-1494.81" font-family="Arial" font-size="14.00" fill="#c6c5fe">app/page.tsx</text>
</g>
<!-- app/page.tsx&#45;&gt;components/layout/footer.tsx -->
<g id="edge9" class="edge">
<title>app/page.tsx&#45;&gt;components/layout/footer.tsx</title>
<path fill="none" stroke="#757575" d="M108.17,-1488.1C122.79,-1451.4 170.93,-1339.86 241,-1271.23 269.41,-1243.41 309.39,-1221.81 339.31,-1208.11"/>
<polygon fill="#757575" stroke="#757575" points="340.35,-1211.48 348.06,-1204.21 337.5,-1205.08 340.35,-1211.48"/>
</g>
<!-- components/carousel.tsx -->
<g id="node15" class="node">
<title>components/carousel.tsx</title>
<path fill="none" stroke="#c6c5fe" d="M456.83,-1512.11C456.83,-1512.11 306.67,-1512.11 306.67,-1512.11 302.71,-1512.11 298.75,-1508.15 298.75,-1504.19 298.75,-1504.19 298.75,-1496.28 298.75,-1496.28 298.75,-1492.32 302.71,-1488.36 306.67,-1488.36 306.67,-1488.36 456.83,-1488.36 456.83,-1488.36 460.79,-1488.36 464.75,-1492.32 464.75,-1496.28 464.75,-1496.28 464.75,-1504.19 464.75,-1504.19 464.75,-1508.15 460.79,-1512.11 456.83,-1512.11"/>
<text text-anchor="middle" x="381.75" y="-1494.81" font-family="Arial" font-size="14.00" fill="#c6c5fe">components/carousel.tsx</text>
</g>
<!-- app/page.tsx&#45;&gt;components/carousel.tsx -->
<g id="edge7" class="edge">
<title>app/page.tsx&#45;&gt;components/carousel.tsx</title>
<path fill="none" stroke="#757575" d="M149.59,-1500.23C186.93,-1500.23 240.76,-1500.23 287.08,-1500.23"/>
<polygon fill="#757575" stroke="#757575" points="286.85,-1503.73 296.85,-1500.23 286.85,-1496.73 286.85,-1503.73"/>
</g>
<!-- components/grid/three&#45;items.tsx -->
<g id="node16" class="node">
<title>components/grid/three&#45;items.tsx</title>
<path fill="none" stroke="#c6c5fe" d="M478.58,-1554.11C478.58,-1554.11 284.92,-1554.11 284.92,-1554.11 280.96,-1554.11 277,-1550.15 277,-1546.19 277,-1546.19 277,-1538.28 277,-1538.28 277,-1534.32 280.96,-1530.36 284.92,-1530.36 284.92,-1530.36 478.58,-1530.36 478.58,-1530.36 482.54,-1530.36 486.5,-1534.32 486.5,-1538.28 486.5,-1538.28 486.5,-1546.19 486.5,-1546.19 486.5,-1550.15 482.54,-1554.11 478.58,-1554.11"/>
<text text-anchor="middle" x="381.75" y="-1536.81" font-family="Arial" font-size="14.00" fill="#c6c5fe">components/grid/three&#45;items.tsx</text>
</g>
<!-- app/page.tsx&#45;&gt;components/grid/three&#45;items.tsx -->
<g id="edge8" class="edge">
<title>app/page.tsx&#45;&gt;components/grid/three&#45;items.tsx</title>
<path fill="none" stroke="#757575" d="M149.33,-1507.26C176.06,-1511.35 210.44,-1516.6 241,-1521.23 255.93,-1523.5 271.76,-1525.89 287.2,-1528.21"/>
<polygon fill="#757575" stroke="#757575" points="286.44,-1531.63 296.85,-1529.66 287.49,-1524.71 286.44,-1531.63"/>
</g>
<!-- components/grid/tile.tsx -->
<g id="node18" class="node">
<title>components/grid/tile.tsx</title>
<path fill="none" stroke="#c6c5fe" d="M773.58,-1519.11C773.58,-1519.11 630.92,-1519.11 630.92,-1519.11 626.96,-1519.11 623,-1515.15 623,-1511.19 623,-1511.19 623,-1503.28 623,-1503.28 623,-1499.32 626.96,-1495.36 630.92,-1495.36 630.92,-1495.36 773.58,-1495.36 773.58,-1495.36 777.54,-1495.36 781.5,-1499.32 781.5,-1503.28 781.5,-1503.28 781.5,-1511.19 781.5,-1511.19 781.5,-1515.15 777.54,-1519.11 773.58,-1519.11"/>
<text text-anchor="middle" x="702.25" y="-1501.81" font-family="Arial" font-size="14.00" fill="#c6c5fe">components/grid/tile.tsx</text>
</g>
<!-- components/carousel.tsx&#45;&gt;components/grid/tile.tsx -->
<g id="edge25" class="edge">
<title>components/carousel.tsx&#45;&gt;components/grid/tile.tsx</title>
<path fill="none" stroke="#757575" d="M465.19,-1502.05C509.96,-1503.03 565.38,-1504.25 611.28,-1505.26"/>
<polygon fill="#757575" stroke="#757575" points="611.14,-1508.76 621.21,-1505.48 611.29,-1501.76 611.14,-1508.76"/>
</g>
<!-- components/grid/three&#45;items.tsx&#45;&gt;components/grid/tile.tsx -->
<g id="edge45" class="edge">
<title>components/grid/three&#45;items.tsx&#45;&gt;components/grid/tile.tsx</title>
<path fill="none" stroke="#757575" d="M486.6,-1530.82C526.83,-1526.4 572.45,-1521.39 611.26,-1517.12"/>
<polygon fill="#757575" stroke="#757575" points="611.48,-1520.62 621.03,-1516.05 610.71,-1513.66 611.48,-1520.62"/>
</g>
<!-- lib/shopify/types.ts -->
<g id="node22" class="node">
<title>lib/shopify/types.ts</title>
<path fill="none" stroke="#cfffac" d="M1064.46,-1107.11C1064.46,-1107.11 954.04,-1107.11 954.04,-1107.11 950.08,-1107.11 946.12,-1103.15 946.12,-1099.19 946.12,-1099.19 946.12,-1091.28 946.12,-1091.28 946.12,-1087.32 950.08,-1083.36 954.04,-1083.36 954.04,-1083.36 1064.46,-1083.36 1064.46,-1083.36 1068.42,-1083.36 1072.38,-1087.32 1072.38,-1091.28 1072.38,-1091.28 1072.38,-1099.19 1072.38,-1099.19 1072.38,-1103.15 1068.42,-1107.11 1064.46,-1107.11"/>
<text text-anchor="middle" x="1009.25" y="-1089.81" font-family="Arial" font-size="14.00" fill="#cfffac">lib/shopify/types.ts</text>
</g>
<!-- components/grid/three&#45;items.tsx&#45;&gt;lib/shopify/types.ts -->
<g id="edge46" class="edge">
<title>components/grid/three&#45;items.tsx&#45;&gt;lib/shopify/types.ts</title>
<path fill="none" stroke="#757575" d="M417.24,-1554.58C502.81,-1582.77 726.53,-1641.09 846,-1528.23 912.81,-1465.13 819.59,-1183.7 882,-1116.23 895.5,-1101.65 914.97,-1094.69 934.6,-1091.81"/>
<polygon fill="#757575" stroke="#757575" points="934.75,-1095.32 944.31,-1090.75 933.99,-1088.36 934.75,-1095.32"/>
</g>
<!-- app/product/[handle]/page.tsx -->
<g id="node17" class="node">
<title>app/product/[handle]/page.tsx</title>
<path fill="none" stroke="#c6c5fe" d="M191.46,-1277.11C191.46,-1277.11 13.54,-1277.11 13.54,-1277.11 9.58,-1277.11 5.62,-1273.15 5.62,-1269.19 5.62,-1269.19 5.62,-1261.28 5.62,-1261.28 5.62,-1257.32 9.58,-1253.36 13.54,-1253.36 13.54,-1253.36 191.46,-1253.36 191.46,-1253.36 195.42,-1253.36 199.38,-1257.32 199.38,-1261.28 199.38,-1261.28 199.38,-1269.19 199.38,-1269.19 199.38,-1273.15 195.42,-1277.11 191.46,-1277.11"/>
<text text-anchor="middle" x="102.5" y="-1259.81" font-family="Arial" font-size="14.00" fill="#c6c5fe">app/product/[handle]/page.tsx</text>
</g>
<!-- app/product/[handle]/page.tsx&#45;&gt;components/layout/footer.tsx -->
<g id="edge11" class="edge">
<title>app/product/[handle]/page.tsx&#45;&gt;components/layout/footer.tsx</title>
<path fill="none" stroke="#757575" d="M134.48,-1252.9C162.08,-1242.28 203.74,-1227.14 241,-1217.23 257.24,-1212.92 274.72,-1209.06 291.65,-1205.72"/>
<polygon fill="#757575" stroke="#757575" points="292.02,-1209.21 301.18,-1203.88 290.7,-1202.33 292.02,-1209.21"/>
</g>
<!-- app/product/[handle]/page.tsx&#45;&gt;components/grid/tile.tsx -->
<g id="edge10" class="edge">
<title>app/product/[handle]/page.tsx&#45;&gt;components/grid/tile.tsx</title>
<path fill="none" stroke="#757575" d="M111.09,-1277.48C129.51,-1306.13 179.66,-1377.78 241,-1413.23 256.67,-1422.29 540.71,-1482.89 558.5,-1486.23 575.46,-1489.43 593.64,-1492.42 611.14,-1495.1"/>
<polygon fill="#757575" stroke="#757575" points="610.62,-1498.56 621.03,-1496.58 611.66,-1491.63 610.62,-1498.56"/>
</g>
<!-- components/product/gallery.tsx -->
<g id="node19" class="node">
<title>components/product/gallery.tsx</title>
<path fill="none" stroke="#c6c5fe" d="M475.21,-1404.11C475.21,-1404.11 288.29,-1404.11 288.29,-1404.11 284.33,-1404.11 280.38,-1400.15 280.38,-1396.19 280.38,-1396.19 280.38,-1388.28 280.38,-1388.28 280.38,-1384.32 284.33,-1380.36 288.29,-1380.36 288.29,-1380.36 475.21,-1380.36 475.21,-1380.36 479.17,-1380.36 483.12,-1384.32 483.12,-1388.28 483.12,-1388.28 483.12,-1396.19 483.12,-1396.19 483.12,-1400.15 479.17,-1404.11 475.21,-1404.11"/>
<text text-anchor="middle" x="381.75" y="-1386.81" font-family="Arial" font-size="14.00" fill="#c6c5fe">components/product/gallery.tsx</text>
</g>
<!-- app/product/[handle]/page.tsx&#45;&gt;components/product/gallery.tsx -->
<g id="edge12" class="edge">
<title>app/product/[handle]/page.tsx&#45;&gt;components/product/gallery.tsx</title>
<path fill="none" stroke="#757575" d="M115,-1277.54C137.04,-1300.26 187.76,-1348.54 241,-1371.23 249.94,-1375.04 259.45,-1378.18 269.15,-1380.75"/>
<polygon fill="#757575" stroke="#757575" points="268.15,-1384.11 278.7,-1383.07 269.81,-1377.31 268.15,-1384.11"/>
</g>
<!-- components/product/product&#45;description.tsx -->
<g id="node20" class="node">
<title>components/product/product&#45;description.tsx</title>
<path fill="none" stroke="#c6c5fe" d="M513.08,-1304.11C513.08,-1304.11 250.42,-1304.11 250.42,-1304.11 246.46,-1304.11 242.5,-1300.15 242.5,-1296.19 242.5,-1296.19 242.5,-1288.28 242.5,-1288.28 242.5,-1284.32 246.46,-1280.36 250.42,-1280.36 250.42,-1280.36 513.08,-1280.36 513.08,-1280.36 517.04,-1280.36 521,-1284.32 521,-1288.28 521,-1288.28 521,-1296.19 521,-1296.19 521,-1300.15 517.04,-1304.11 513.08,-1304.11"/>
<text text-anchor="middle" x="381.75" y="-1286.81" font-family="Arial" font-size="14.00" fill="#c6c5fe">components/product/product&#45;description.tsx</text>
</g>
<!-- app/product/[handle]/page.tsx&#45;&gt;components/product/product&#45;description.tsx -->
<g id="edge13" class="edge">
<title>app/product/[handle]/page.tsx&#45;&gt;components/product/product&#45;description.tsx</title>
<path fill="none" stroke="#757575" d="M199.69,-1274.6C213.65,-1275.96 228.24,-1277.38 242.83,-1278.8"/>
<polygon fill="#757575" stroke="#757575" points="242.17,-1282.26 252.46,-1279.74 242.85,-1275.29 242.17,-1282.26"/>
</g>
<!-- lib/constants.ts -->
<g id="node21" class="node">
<title>lib/constants.ts</title>
<path fill="none" stroke="#cfffac" d="M1316.33,-481.11C1316.33,-481.11 1226.92,-481.11 1226.92,-481.11 1222.96,-481.11 1219,-477.15 1219,-473.19 1219,-473.19 1219,-465.28 1219,-465.28 1219,-461.32 1222.96,-457.36 1226.92,-457.36 1226.92,-457.36 1316.33,-457.36 1316.33,-457.36 1320.29,-457.36 1324.25,-461.32 1324.25,-465.28 1324.25,-465.28 1324.25,-473.19 1324.25,-473.19 1324.25,-477.15 1320.29,-481.11 1316.33,-481.11"/>
<text text-anchor="middle" x="1271.62" y="-463.81" font-family="Arial" font-size="14.00" fill="#cfffac">lib/constants.ts</text>
</g>
<!-- app/product/[handle]/page.tsx&#45;&gt;lib/constants.ts -->
<g id="edge14" class="edge">
<title>app/product/[handle]/page.tsx&#45;&gt;lib/constants.ts</title>
<path fill="none" stroke="#757575" d="M148.89,-1252.96C169.6,-1244.9 192.3,-1232.07 205,-1212.23 248.44,-1144.41 183.16,-544.29 241,-488.23 275.76,-454.54 988.94,-464.27 1207.51,-468.05"/>
<polygon fill="#757575" stroke="#757575" points="1207.19,-471.55 1217.25,-468.22 1207.31,-464.55 1207.19,-471.55"/>
</g>
<!-- app/product/[handle]/page.tsx&#45;&gt;lib/shopify/types.ts -->
<g id="edge15" class="edge">
<title>app/product/[handle]/page.tsx&#45;&gt;lib/shopify/types.ts</title>
<path fill="none" stroke="#757575" d="M199.57,-1261.12C394.56,-1252.4 820.51,-1231.28 846,-1212.23 882.51,-1184.96 846.81,-1145.19 882,-1116.23 896.71,-1104.14 915.71,-1097.79 934.5,-1094.69"/>
<polygon fill="#757575" stroke="#757575" points="934.85,-1098.17 944.3,-1093.39 933.93,-1091.23 934.85,-1098.17"/>
</g>
<!-- components/label.tsx -->
<g id="node43" class="node">
<title>components/label.tsx</title>
<path fill="none" stroke="#c6c5fe" d="M1073.08,-1498.11C1073.08,-1498.11 945.42,-1498.11 945.42,-1498.11 941.46,-1498.11 937.5,-1494.15 937.5,-1490.19 937.5,-1490.19 937.5,-1482.28 937.5,-1482.28 937.5,-1478.32 941.46,-1474.36 945.42,-1474.36 945.42,-1474.36 1073.08,-1474.36 1073.08,-1474.36 1077.04,-1474.36 1081,-1478.32 1081,-1482.28 1081,-1482.28 1081,-1490.19 1081,-1490.19 1081,-1494.15 1077.04,-1498.11 1073.08,-1498.11"/>
<text text-anchor="middle" x="1009.25" y="-1480.81" font-family="Arial" font-size="14.00" fill="#c6c5fe">components/label.tsx</text>
</g>
<!-- components/grid/tile.tsx&#45;&gt;components/label.tsx -->
<g id="edge47" class="edge">
<title>components/grid/tile.tsx&#45;&gt;components/label.tsx</title>
<path fill="none" stroke="#757575" d="M781.8,-1501.83C825.88,-1498.79 880.84,-1495.01 925.58,-1491.93"/>
<polygon fill="#757575" stroke="#757575" points="925.77,-1495.42 935.5,-1491.24 925.29,-1488.44 925.77,-1495.42"/>
</g>
<!-- components/product/gallery.tsx&#45;&gt;lib/utils.ts -->
<g id="edge71" class="edge">
<title>components/product/gallery.tsx&#45;&gt;lib/utils.ts</title>
<path fill="none" stroke="#757575" d="M483.51,-1398.81C581.86,-1400.79 732.81,-1391.72 846,-1330.23 867.6,-1318.5 861.17,-1301.29 882,-1288.23 981.11,-1226.12 1035.17,-1279.66 1136.5,-1221.23 1187.67,-1191.73 1232.79,-1137.59 1255.35,-1107.62"/>
<polygon fill="#757575" stroke="#757575" points="1258.09,-1109.79 1261.21,-1099.67 1252.46,-1105.64 1258.09,-1109.79"/>
</g>
<!-- components/product/gallery.tsx&#45;&gt;components/grid/tile.tsx -->
<g id="edge70" class="edge">
<title>components/product/gallery.tsx&#45;&gt;components/grid/tile.tsx</title>
<path fill="none" stroke="#757575" d="M449.3,-1404.6C473.9,-1411.41 500.99,-1421.74 522.5,-1437.23 544.43,-1453.03 535.34,-1472.3 558.5,-1486.23 574.39,-1495.8 593.04,-1501.59 611.51,-1504.98"/>
<polygon fill="#757575" stroke="#757575" points="610.73,-1508.4 621.16,-1506.52 611.83,-1501.49 610.73,-1508.4"/>
</g>
<!-- components/product/product&#45;description.tsx&#45;&gt;components/prose.tsx -->
<g id="edge75" class="edge">
<title>components/product/product&#45;description.tsx&#45;&gt;components/prose.tsx</title>
<path fill="none" stroke="#757575" d="M480.24,-1304.59C495.79,-1310.14 510.64,-1318.04 522.5,-1329.23 559.9,-1364.55 519.74,-1405.42 558.5,-1439.23 574.51,-1453.2 595.47,-1460.79 616.37,-1464.68"/>
<polygon fill="#757575" stroke="#757575" points="615.69,-1468.12 626.11,-1466.2 616.77,-1461.2 615.69,-1468.12"/>
</g>
<!-- components/product/product&#45;description.tsx&#45;&gt;lib/shopify/types.ts -->
<g id="edge76" class="edge">
<title>components/product/product&#45;description.tsx&#45;&gt;lib/shopify/types.ts</title>
<path fill="none" stroke="#757575" d="M521.29,-1286.02C648.67,-1279.05 821.42,-1265.93 846,-1245.23 891.53,-1206.89 837.71,-1156.01 882,-1116.23 896.37,-1103.33 915.54,-1096.77 934.6,-1093.73"/>
<polygon fill="#757575" stroke="#757575" points="934.78,-1097.23 944.26,-1092.51 933.9,-1090.29 934.78,-1097.23"/>
</g>
<!-- components/cart/add&#45;to&#45;cart.tsx -->
<g id="node33" class="node">
<title>components/cart/add&#45;to&#45;cart.tsx</title>
<path fill="none" stroke="#c6c5fe" d="M797.58,-967.11C797.58,-967.11 606.92,-967.11 606.92,-967.11 602.96,-967.11 599,-963.15 599,-959.19 599,-959.19 599,-951.28 599,-951.28 599,-947.32 602.96,-943.36 606.92,-943.36 606.92,-943.36 797.58,-943.36 797.58,-943.36 801.54,-943.36 805.5,-947.32 805.5,-951.28 805.5,-951.28 805.5,-959.19 805.5,-959.19 805.5,-963.15 801.54,-967.11 797.58,-967.11"/>
<text text-anchor="middle" x="702.25" y="-949.81" font-family="Arial" font-size="14.00" fill="#c6c5fe">components/cart/add&#45;to&#45;cart.tsx</text>
</g>
<!-- components/product/product&#45;description.tsx&#45;&gt;components/cart/add&#45;to&#45;cart.tsx -->
<g id="edge72" class="edge">
<title>components/product/product&#45;description.tsx&#45;&gt;components/cart/add&#45;to&#45;cart.tsx</title>
<path fill="none" stroke="#757575" d="M422.66,-1279.94C454.77,-1267.91 498.37,-1246.36 522.5,-1212.23 574.13,-1139.2 502.3,-1083.82 558.5,-1014.23 575.23,-993.52 600.46,-980 625.08,-971.2"/>
<polygon fill="#757575" stroke="#757575" points="626.11,-974.55 634.5,-968.08 623.91,-967.9 626.11,-974.55"/>
</g>
<!-- components/price.tsx -->
<g id="node41" class="node">
<title>components/price.tsx</title>
<path fill="none" stroke="#cfffac" d="M1335.83,-1437.11C1335.83,-1437.11 1207.42,-1437.11 1207.42,-1437.11 1203.46,-1437.11 1199.5,-1433.15 1199.5,-1429.19 1199.5,-1429.19 1199.5,-1421.28 1199.5,-1421.28 1199.5,-1417.32 1203.46,-1413.36 1207.42,-1413.36 1207.42,-1413.36 1335.83,-1413.36 1335.83,-1413.36 1339.79,-1413.36 1343.75,-1417.32 1343.75,-1421.28 1343.75,-1421.28 1343.75,-1429.19 1343.75,-1429.19 1343.75,-1433.15 1339.79,-1437.11 1335.83,-1437.11"/>
<text text-anchor="middle" x="1271.62" y="-1419.81" font-family="Arial" font-size="14.00" fill="#cfffac">components/price.tsx</text>
</g>
<!-- components/product/product&#45;description.tsx&#45;&gt;components/price.tsx -->
<g id="edge73" class="edge">
<title>components/product/product&#45;description.tsx&#45;&gt;components/price.tsx</title>
<path fill="none" stroke="#757575" d="M456.85,-1304.6C478.86,-1310.16 502.43,-1318.07 522.5,-1329.23 541.73,-1339.94 538.42,-1354.22 558.5,-1363.23 769.39,-1457.88 1050.39,-1447.62 1187.83,-1435.01"/>
<polygon fill="#757575" stroke="#757575" points="1187.95,-1438.51 1197.57,-1434.08 1187.29,-1431.54 1187.95,-1438.51"/>
</g>
<!-- components/product/variant&#45;selector.tsx -->
<g id="node53" class="node">
<title>components/product/variant&#45;selector.tsx</title>
<path fill="none" stroke="#c6c5fe" d="M821.96,-1321.11C821.96,-1321.11 582.54,-1321.11 582.54,-1321.11 578.58,-1321.11 574.62,-1317.15 574.62,-1313.19 574.62,-1313.19 574.62,-1305.28 574.62,-1305.28 574.62,-1301.32 578.58,-1297.36 582.54,-1297.36 582.54,-1297.36 821.96,-1297.36 821.96,-1297.36 825.92,-1297.36 829.88,-1301.32 829.88,-1305.28 829.88,-1305.28 829.88,-1313.19 829.88,-1313.19 829.88,-1317.15 825.92,-1321.11 821.96,-1321.11"/>
<text text-anchor="middle" x="702.25" y="-1303.81" font-family="Arial" font-size="14.00" fill="#c6c5fe">components/product/variant&#45;selector.tsx</text>
</g>
<!-- components/product/product&#45;description.tsx&#45;&gt;components/product/variant&#45;selector.tsx -->
<g id="edge74" class="edge">
<title>components/product/product&#45;description.tsx&#45;&gt;components/product/variant&#45;selector.tsx</title>
<path fill="none" stroke="#757575" d="M521.06,-1299.62C535.1,-1300.37 549.36,-1301.13 563.4,-1301.88"/>
<polygon fill="#757575" stroke="#757575" points="562.92,-1305.36 573.09,-1302.39 563.29,-1298.37 562.92,-1305.36"/>
</g>
<!-- app/robots.ts -->
<g id="node23" class="node">
<title>app/robots.ts</title>
<path fill="none" stroke="#cfffac" d="M141.58,-1680.11C141.58,-1680.11 63.42,-1680.11 63.42,-1680.11 59.46,-1680.11 55.5,-1676.15 55.5,-1672.19 55.5,-1672.19 55.5,-1664.28 55.5,-1664.28 55.5,-1660.32 59.46,-1656.36 63.42,-1656.36 63.42,-1656.36 141.58,-1656.36 141.58,-1656.36 145.54,-1656.36 149.5,-1660.32 149.5,-1664.28 149.5,-1664.28 149.5,-1672.19 149.5,-1672.19 149.5,-1676.15 145.54,-1680.11 141.58,-1680.11"/>
<text text-anchor="middle" x="102.5" y="-1662.81" font-family="Arial" font-size="14.00" fill="#cfffac">app/robots.ts</text>
</g>
<!-- app/search/[collection]/opengraph&#45;image.tsx -->
<g id="node24" class="node">
<title>app/search/[collection]/opengraph&#45;image.tsx</title>
<path fill="none" stroke="#c6c5fe" d="M514.58,-563.11C514.58,-563.11 248.92,-563.11 248.92,-563.11 244.96,-563.11 241,-559.15 241,-555.19 241,-555.19 241,-547.28 241,-547.28 241,-543.32 244.96,-539.36 248.92,-539.36 248.92,-539.36 514.58,-539.36 514.58,-539.36 518.54,-539.36 522.5,-543.32 522.5,-547.28 522.5,-547.28 522.5,-555.19 522.5,-555.19 522.5,-559.15 518.54,-563.11 514.58,-563.11"/>
<text text-anchor="middle" x="381.75" y="-545.81" font-family="Arial" font-size="14.00" fill="#c6c5fe">app/search/[collection]/opengraph&#45;image.tsx</text>
</g>
<!-- app/search/[collection]/opengraph&#45;image.tsx&#45;&gt;components/opengraph&#45;image.tsx -->
<g id="edge16" class="edge">
<title>app/search/[collection]/opengraph&#45;image.tsx&#45;&gt;components/opengraph&#45;image.tsx</title>
<path fill="none" stroke="#757575" d="M476.59,-538.86C514.16,-533.91 557.62,-528.17 596.25,-523.08"/>
<polygon fill="#757575" stroke="#757575" points="596.58,-526.57 606.03,-521.79 595.66,-519.63 596.58,-526.57"/>
</g>
<!-- app/search/[collection]/page.tsx -->
<g id="node25" class="node">
<title>app/search/[collection]/page.tsx</title>
<path fill="none" stroke="#c6c5fe" d="M197.08,-1061.11C197.08,-1061.11 7.92,-1061.11 7.92,-1061.11 3.96,-1061.11 0,-1057.15 0,-1053.19 0,-1053.19 0,-1045.28 0,-1045.28 0,-1041.32 3.96,-1037.36 7.92,-1037.36 7.92,-1037.36 197.08,-1037.36 197.08,-1037.36 201.04,-1037.36 205,-1041.32 205,-1045.28 205,-1045.28 205,-1053.19 205,-1053.19 205,-1057.15 201.04,-1061.11 197.08,-1061.11"/>
<text text-anchor="middle" x="102.5" y="-1043.81" font-family="Arial" font-size="14.00" fill="#c6c5fe">app/search/[collection]/page.tsx</text>
</g>
<!-- app/search/[collection]/page.tsx&#45;&gt;lib/constants.ts -->
<g id="edge18" class="edge">
<title>app/search/[collection]/page.tsx&#45;&gt;lib/constants.ts</title>
<path fill="none" stroke="#757575" d="M158.88,-1036.87C176.42,-1030.16 194.08,-1019.88 205,-1004.23 274.99,-903.99 151.76,-538.81 241,-455.23 313.62,-387.22 1037.13,-450.06 1136.5,-455.23 1159.7,-456.44 1185.06,-458.82 1207.42,-461.27"/>
<polygon fill="#757575" stroke="#757575" points="1206.98,-464.74 1217.31,-462.39 1207.76,-457.79 1206.98,-464.74"/>
</g>
<!-- components/layout/product&#45;grid&#45;items.tsx -->
<g id="node26" class="node">
<title>components/layout/product&#45;grid&#45;items.tsx</title>
<path fill="none" stroke="#c6c5fe" d="M505.96,-1105.11C505.96,-1105.11 257.54,-1105.11 257.54,-1105.11 253.58,-1105.11 249.62,-1101.15 249.62,-1097.19 249.62,-1097.19 249.62,-1089.28 249.62,-1089.28 249.62,-1085.32 253.58,-1081.36 257.54,-1081.36 257.54,-1081.36 505.96,-1081.36 505.96,-1081.36 509.92,-1081.36 513.88,-1085.32 513.88,-1089.28 513.88,-1089.28 513.88,-1097.19 513.88,-1097.19 513.88,-1101.15 509.92,-1105.11 505.96,-1105.11"/>
<text text-anchor="middle" x="381.75" y="-1087.81" font-family="Arial" font-size="14.00" fill="#c6c5fe">components/layout/product&#45;grid&#45;items.tsx</text>
</g>
<!-- app/search/[collection]/page.tsx&#45;&gt;components/layout/product&#45;grid&#45;items.tsx -->
<g id="edge17" class="edge">
<title>app/search/[collection]/page.tsx&#45;&gt;components/layout/product&#45;grid&#45;items.tsx</title>
<path fill="none" stroke="#757575" d="M181.47,-1061.61C215.72,-1067.04 256.13,-1073.46 291.57,-1079.08"/>
<polygon fill="#757575" stroke="#757575" points="290.97,-1082.53 301.39,-1080.64 292.07,-1075.62 290.97,-1082.53"/>
</g>
<!-- components/layout/product&#45;grid&#45;items.tsx&#45;&gt;components/grid/tile.tsx -->
<g id="edge60" class="edge">
<title>components/layout/product&#45;grid&#45;items.tsx&#45;&gt;components/grid/tile.tsx</title>
<path fill="none" stroke="#757575" d="M426.84,-1105.52C458.85,-1116.87 500.3,-1137.1 522.5,-1170.23 561.84,-1228.95 509.35,-1435.45 558.5,-1486.23 572.4,-1500.6 591.5,-1508.04 611.21,-1511.5"/>
<polygon fill="#757575" stroke="#757575" points="610.64,-1514.95 621.02,-1512.85 611.59,-1508.02 610.64,-1514.95"/>
</g>
<!-- components/layout/product&#45;grid&#45;items.tsx&#45;&gt;lib/shopify/types.ts -->
<g id="edge61" class="edge">
<title>components/layout/product&#45;grid&#45;items.tsx&#45;&gt;lib/shopify/types.ts</title>
<path fill="none" stroke="#757575" d="M432.76,-1105.55C467.73,-1113.51 515.65,-1123.13 558.5,-1127.23 685.69,-1139.43 719.62,-1146.11 846,-1127.23 862.55,-1124.76 865.71,-1120.06 882,-1116.23 898.86,-1112.28 917.15,-1108.78 934.44,-1105.83"/>
<polygon fill="#757575" stroke="#757575" points="934.85,-1109.31 944.14,-1104.23 933.71,-1102.41 934.85,-1109.31"/>
</g>
<!-- app/search/layout.tsx -->
<g id="node27" class="node">
<title>app/search/layout.tsx</title>
<path fill="none" stroke="#c6c5fe" d="M166.33,-365.11C166.33,-365.11 38.67,-365.11 38.67,-365.11 34.71,-365.11 30.75,-361.15 30.75,-357.19 30.75,-357.19 30.75,-349.28 30.75,-349.28 30.75,-345.32 34.71,-341.36 38.67,-341.36 38.67,-341.36 166.33,-341.36 166.33,-341.36 170.29,-341.36 174.25,-345.32 174.25,-349.28 174.25,-349.28 174.25,-357.19 174.25,-357.19 174.25,-361.15 170.29,-365.11 166.33,-365.11"/>
<text text-anchor="middle" x="102.5" y="-347.81" font-family="Arial" font-size="14.00" fill="#c6c5fe">app/search/layout.tsx</text>
</g>
<!-- app/search/layout.tsx&#45;&gt;components/layout/footer.tsx -->
<g id="edge19" class="edge">
<title>app/search/layout.tsx&#45;&gt;components/layout/footer.tsx</title>
<path fill="none" stroke="#757575" d="M106.46,-365.38C119.57,-419.57 173.25,-644.92 205,-832.23 215.56,-894.52 205.48,-1061.99 241,-1114.23 261.13,-1143.85 296.56,-1163.19 326.71,-1175.08"/>
<polygon fill="#757575" stroke="#757575" points="325.11,-1178.21 335.7,-1178.45 327.57,-1171.66 325.11,-1178.21"/>
</g>
<!-- app/search/layout.tsx&#45;&gt;lib/constants.ts -->
<g id="edge21" class="edge">
<title>app/search/layout.tsx&#45;&gt;lib/constants.ts</title>
<path fill="none" stroke="#757575" d="M173.12,-340.88C343.37,-313.63 791.99,-259.8 1136.5,-379.23 1180.63,-394.53 1224.11,-428.02 1249.1,-449.55"/>
<polygon fill="#757575" stroke="#757575" points="1246.49,-451.91 1256.31,-455.89 1251.11,-446.66 1246.49,-451.91"/>
</g>
<!-- components/layout/search/collections.tsx -->
<g id="node28" class="node">
<title>components/layout/search/collections.tsx</title>
<path fill="none" stroke="#cfffac" d="M504.83,-365.11C504.83,-365.11 258.67,-365.11 258.67,-365.11 254.71,-365.11 250.75,-361.15 250.75,-357.19 250.75,-357.19 250.75,-349.28 250.75,-349.28 250.75,-345.32 254.71,-341.36 258.67,-341.36 258.67,-341.36 504.83,-341.36 504.83,-341.36 508.79,-341.36 512.75,-345.32 512.75,-349.28 512.75,-349.28 512.75,-357.19 512.75,-357.19 512.75,-361.15 508.79,-365.11 504.83,-365.11"/>
<text text-anchor="middle" x="381.75" y="-347.81" font-family="Arial" font-size="14.00" fill="#cfffac">components/layout/search/collections.tsx</text>
</g>
<!-- app/search/layout.tsx&#45;&gt;components/layout/search/collections.tsx -->
<g id="edge20" class="edge">
<title>app/search/layout.tsx&#45;&gt;components/layout/search/collections.tsx</title>
<path fill="none" stroke="#757575" d="M174.54,-353.23C194.37,-353.23 216.65,-353.23 239.03,-353.23"/>
<polygon fill="#757575" stroke="#757575" points="238.86,-356.73 248.86,-353.23 238.86,-349.73 238.86,-356.73"/>
</g>
<!-- app/search/loading.tsx -->
<g id="node29" class="node">
<title>app/search/loading.tsx</title>
<path fill="none" stroke="#cfffac" d="M170.08,-1722.11C170.08,-1722.11 34.92,-1722.11 34.92,-1722.11 30.96,-1722.11 27,-1718.15 27,-1714.19 27,-1714.19 27,-1706.28 27,-1706.28 27,-1702.32 30.96,-1698.36 34.92,-1698.36 34.92,-1698.36 170.08,-1698.36 170.08,-1698.36 174.04,-1698.36 178,-1702.32 178,-1706.28 178,-1706.28 178,-1714.19 178,-1714.19 178,-1718.15 174.04,-1722.11 170.08,-1722.11"/>
<text text-anchor="middle" x="102.5" y="-1704.81" font-family="Arial" font-size="14.00" fill="#cfffac">app/search/loading.tsx</text>
</g>
<!-- app/search/page.tsx -->
<g id="node30" class="node">
<title>app/search/page.tsx</title>
<path fill="none" stroke="#c6c5fe" d="M163.33,-995.11C163.33,-995.11 41.67,-995.11 41.67,-995.11 37.71,-995.11 33.75,-991.15 33.75,-987.19 33.75,-987.19 33.75,-979.28 33.75,-979.28 33.75,-975.32 37.71,-971.36 41.67,-971.36 41.67,-971.36 163.33,-971.36 163.33,-971.36 167.29,-971.36 171.25,-975.32 171.25,-979.28 171.25,-979.28 171.25,-987.19 171.25,-987.19 171.25,-991.15 167.29,-995.11 163.33,-995.11"/>
<text text-anchor="middle" x="102.5" y="-977.81" font-family="Arial" font-size="14.00" fill="#c6c5fe">app/search/page.tsx</text>
</g>
<!-- app/search/page.tsx&#45;&gt;lib/constants.ts -->
<g id="edge23" class="edge">
<title>app/search/page.tsx&#45;&gt;lib/constants.ts</title>
<path fill="none" stroke="#757575" d="M120.47,-971.08C144.17,-953.01 186.37,-916.61 205,-874.23 246,-780.98 166.19,-486.38 241,-417.23 314.07,-349.7 1038.7,-398.94 1136.5,-417.23 1172.1,-423.89 1210.41,-439.7 1236.93,-452.14"/>
<polygon fill="#757575" stroke="#757575" points="1235.29,-455.24 1245.82,-456.41 1238.32,-448.93 1235.29,-455.24"/>
</g>
<!-- app/search/page.tsx&#45;&gt;components/layout/product&#45;grid&#45;items.tsx -->
<g id="edge22" class="edge">
<title>app/search/page.tsx&#45;&gt;components/layout/product&#45;grid&#45;items.tsx</title>
<path fill="none" stroke="#757575" d="M134.5,-995.53C184.57,-1015.4 283.3,-1054.57 339.34,-1076.81"/>
<polygon fill="#757575" stroke="#757575" points="337.96,-1080.02 348.55,-1080.46 340.54,-1073.52 337.96,-1080.02"/>
</g>
<!-- app/sitemap.ts -->
<g id="node31" class="node">
<title>app/sitemap.ts</title>
<path fill="none" stroke="#c6c5fe" d="M1053.58,-1149.11C1053.58,-1149.11 964.92,-1149.11 964.92,-1149.11 960.96,-1149.11 957,-1145.15 957,-1141.19 957,-1141.19 957,-1133.28 957,-1133.28 957,-1129.32 960.96,-1125.36 964.92,-1125.36 964.92,-1125.36 1053.58,-1125.36 1053.58,-1125.36 1057.54,-1125.36 1061.5,-1129.32 1061.5,-1133.28 1061.5,-1133.28 1061.5,-1141.19 1061.5,-1141.19 1061.5,-1145.15 1057.54,-1149.11 1053.58,-1149.11"/>
<text text-anchor="middle" x="1009.25" y="-1131.81" font-family="Arial" font-size="14.00" fill="#c6c5fe">app/sitemap.ts</text>
</g>
<!-- app/sitemap.ts&#45;&gt;lib/utils.ts -->
<g id="edge24" class="edge">
<title>app/sitemap.ts&#45;&gt;lib/utils.ts</title>
<path fill="none" stroke="#757575" d="M1061.96,-1129.29C1084.86,-1125.61 1112.07,-1120.99 1136.5,-1116.23 1165.88,-1110.51 1198.67,-1103.19 1224.47,-1097.22"/>
<polygon fill="#757575" stroke="#757575" points="1225.02,-1100.69 1233.96,-1095.01 1223.43,-1093.87 1225.02,-1100.69"/>
</g>
<!-- components/cart/actions.ts -->
<g id="node32" class="node">
<title>components/cart/actions.ts</title>
<path fill="none" stroke="#c6c5fe" d="M1089.96,-761.11C1089.96,-761.11 928.54,-761.11 928.54,-761.11 924.58,-761.11 920.62,-757.15 920.62,-753.19 920.62,-753.19 920.62,-745.28 920.62,-745.28 920.62,-741.32 924.58,-737.36 928.54,-737.36 928.54,-737.36 1089.96,-737.36 1089.96,-737.36 1093.92,-737.36 1097.88,-741.32 1097.88,-745.28 1097.88,-745.28 1097.88,-753.19 1097.88,-753.19 1097.88,-757.15 1093.92,-761.11 1089.96,-761.11"/>
<text text-anchor="middle" x="1009.25" y="-743.81" font-family="Arial" font-size="14.00" fill="#c6c5fe">components/cart/actions.ts</text>
</g>
<!-- components/cart/actions.ts&#45;&gt;lib/constants.ts -->
<g id="edge26" class="edge">
<title>components/cart/actions.ts&#45;&gt;lib/constants.ts</title>
<path fill="none" stroke="#757575" d="M1043.49,-736.9C1070.79,-725.54 1109.28,-706.62 1136.5,-681.23 1197.5,-624.36 1242.29,-533.95 1260.99,-492"/>
<polygon fill="#757575" stroke="#757575" points="1264.16,-493.47 1264.96,-482.91 1257.75,-490.67 1264.16,-493.47"/>
</g>
<!-- components/cart/add&#45;to&#45;cart.tsx&#45;&gt;lib/shopify/types.ts -->
<g id="edge29" class="edge">
<title>components/cart/add&#45;to&#45;cart.tsx&#45;&gt;lib/shopify/types.ts</title>
<path fill="none" stroke="#757575" d="M747.5,-967.55C777.18,-977.18 816.14,-992.6 846,-1014.23 865.91,-1028.66 861.45,-1042.74 882,-1056.23 897.88,-1066.66 916.69,-1074.42 934.88,-1080.15"/>
<polygon fill="#757575" stroke="#757575" points="933.75,-1083.46 944.33,-1082.94 935.74,-1076.75 933.75,-1083.46"/>
</g>
<!-- components/cart/add&#45;to&#45;cart.tsx&#45;&gt;components/cart/actions.ts -->
<g id="edge27" class="edge">
<title>components/cart/add&#45;to&#45;cart.tsx&#45;&gt;components/cart/actions.ts</title>
<path fill="none" stroke="#757575" d="M805.83,-954.58C820.55,-950.58 834.56,-944.17 846,-934.23 888.69,-897.17 845.69,-855.57 882,-812.23 900.23,-790.48 927.81,-775.52 952.56,-765.65"/>
<polygon fill="#757575" stroke="#757575" points="953.77,-768.93 961.9,-762.13 951.3,-762.38 953.77,-768.93"/>
</g>
<!-- components/loading&#45;dots.tsx -->
<g id="node34" class="node">
<title>components/loading&#45;dots.tsx</title>
<path fill="none" stroke="#cfffac" d="M1095.58,-845.11C1095.58,-845.11 922.92,-845.11 922.92,-845.11 918.96,-845.11 915,-841.15 915,-837.19 915,-837.19 915,-829.28 915,-829.28 915,-825.32 918.96,-821.36 922.92,-821.36 922.92,-821.36 1095.58,-821.36 1095.58,-821.36 1099.54,-821.36 1103.5,-825.32 1103.5,-829.28 1103.5,-829.28 1103.5,-837.19 1103.5,-837.19 1103.5,-841.15 1099.54,-845.11 1095.58,-845.11"/>
<text text-anchor="middle" x="1009.25" y="-827.81" font-family="Arial" font-size="14.00" fill="#cfffac">components/loading&#45;dots.tsx</text>
</g>
<!-- components/cart/add&#45;to&#45;cart.tsx&#45;&gt;components/loading&#45;dots.tsx -->
<g id="edge28" class="edge">
<title>components/cart/add&#45;to&#45;cart.tsx&#45;&gt;components/loading&#45;dots.tsx</title>
<path fill="none" stroke="#757575" d="M805.9,-945.34C819.61,-942.52 833.3,-938.89 846,-934.23 899.41,-914.65 954.05,-876 984.32,-852.6"/>
<polygon fill="#757575" stroke="#757575" points="986.36,-855.45 992.07,-846.52 982.04,-849.94 986.36,-855.45"/>
</g>
<!-- components/cart/close&#45;cart.tsx -->
<g id="node35" class="node">
<title>components/cart/close&#45;cart.tsx</title>
<path fill="none" stroke="#cfffac" d="M794.21,-761.11C794.21,-761.11 610.29,-761.11 610.29,-761.11 606.33,-761.11 602.38,-757.15 602.38,-753.19 602.38,-753.19 602.38,-745.28 602.38,-745.28 602.38,-741.32 606.33,-737.36 610.29,-737.36 610.29,-737.36 794.21,-737.36 794.21,-737.36 798.17,-737.36 802.12,-741.32 802.12,-745.28 802.12,-745.28 802.12,-753.19 802.12,-753.19 802.12,-757.15 798.17,-761.11 794.21,-761.11"/>
<text text-anchor="middle" x="702.25" y="-743.81" font-family="Arial" font-size="14.00" fill="#cfffac">components/cart/close&#45;cart.tsx</text>
</g>
<!-- components/cart/delete&#45;item&#45;button.tsx -->
<g id="node36" class="node">
<title>components/cart/delete&#45;item&#45;button.tsx</title>
<path fill="none" stroke="#c6c5fe" d="M819.71,-845.11C819.71,-845.11 584.79,-845.11 584.79,-845.11 580.83,-845.11 576.88,-841.15 576.88,-837.19 576.88,-837.19 576.88,-829.28 576.88,-829.28 576.88,-825.32 580.83,-821.36 584.79,-821.36 584.79,-821.36 819.71,-821.36 819.71,-821.36 823.67,-821.36 827.62,-825.32 827.62,-829.28 827.62,-829.28 827.62,-837.19 827.62,-837.19 827.62,-841.15 823.67,-845.11 819.71,-845.11"/>
<text text-anchor="middle" x="702.25" y="-827.81" font-family="Arial" font-size="14.00" fill="#c6c5fe">components/cart/delete&#45;item&#45;button.tsx</text>
</g>
<!-- components/cart/delete&#45;item&#45;button.tsx&#45;&gt;lib/shopify/types.ts -->
<g id="edge32" class="edge">
<title>components/cart/delete&#45;item&#45;button.tsx&#45;&gt;lib/shopify/types.ts</title>
<path fill="none" stroke="#757575" d="M767.07,-845.59C795.11,-854.17 826.11,-868.5 846,-892.23 893.93,-949.43 831.48,-1001.31 882,-1056.23 895.76,-1071.2 915.12,-1080.47 934.55,-1086.21"/>
<polygon fill="#757575" stroke="#757575" points="933.61,-1089.58 944.18,-1088.73 935.39,-1082.81 933.61,-1089.58"/>
</g>
<!-- components/cart/delete&#45;item&#45;button.tsx&#45;&gt;components/cart/actions.ts -->
<g id="edge30" class="edge">
<title>components/cart/delete&#45;item&#45;button.tsx&#45;&gt;components/cart/actions.ts</title>
<path fill="none" stroke="#757575" d="M806.35,-820.89C819.78,-818.46 833.28,-815.59 846,-812.23 890.36,-800.52 939.18,-780.54 971.56,-766.22"/>
<polygon fill="#757575" stroke="#757575" points="972.8,-769.5 980.5,-762.22 969.94,-763.11 972.8,-769.5"/>
</g>
<!-- components/cart/delete&#45;item&#45;button.tsx&#45;&gt;components/loading&#45;dots.tsx -->
<g id="edge31" class="edge">
<title>components/cart/delete&#45;item&#45;button.tsx&#45;&gt;components/loading&#45;dots.tsx</title>
<path fill="none" stroke="#757575" d="M827.75,-833.23C852.77,-833.23 878.84,-833.23 903.13,-833.23"/>
<polygon fill="#757575" stroke="#757575" points="903.01,-836.73 913.01,-833.23 903.01,-829.73 903.01,-836.73"/>
</g>
<!-- components/cart/edit&#45;item&#45;quantity&#45;button.tsx -->
<g id="node37" class="node">
<title>components/cart/edit&#45;item&#45;quantity&#45;button.tsx</title>
<path fill="none" stroke="#c6c5fe" d="M838.08,-719.11C838.08,-719.11 566.42,-719.11 566.42,-719.11 562.46,-719.11 558.5,-715.15 558.5,-711.19 558.5,-711.19 558.5,-703.28 558.5,-703.28 558.5,-699.32 562.46,-695.36 566.42,-695.36 566.42,-695.36 838.08,-695.36 838.08,-695.36 842.04,-695.36 846,-699.32 846,-703.28 846,-703.28 846,-711.19 846,-711.19 846,-715.15 842.04,-719.11 838.08,-719.11"/>
<text text-anchor="middle" x="702.25" y="-701.81" font-family="Arial" font-size="14.00" fill="#c6c5fe">components/cart/edit&#45;item&#45;quantity&#45;button.tsx</text>
</g>
<!-- components/cart/edit&#45;item&#45;quantity&#45;button.tsx&#45;&gt;lib/shopify/types.ts -->
<g id="edge35" class="edge">
<title>components/cart/edit&#45;item&#45;quantity&#45;button.tsx&#45;&gt;lib/shopify/types.ts</title>
<path fill="none" stroke="#757575" d="M835.87,-719.52C839.48,-722.09 842.87,-724.99 846,-728.23 947.78,-833.82 788.62,-943.15 882,-1056.23 895.25,-1072.28 914.96,-1081.85 934.89,-1087.52"/>
<polygon fill="#757575" stroke="#757575" points="933.92,-1090.89 944.47,-1089.92 935.62,-1084.1 933.92,-1090.89"/>
</g>
<!-- components/cart/edit&#45;item&#45;quantity&#45;button.tsx&#45;&gt;components/cart/actions.ts -->
<g id="edge33" class="edge">
<title>components/cart/edit&#45;item&#45;quantity&#45;button.tsx&#45;&gt;components/cart/actions.ts</title>
<path fill="none" stroke="#757575" d="M793.11,-719.61C829.65,-724.64 872.01,-730.47 909.42,-735.63"/>
<polygon fill="#757575" stroke="#757575" points="908.46,-739.03 918.85,-736.92 909.42,-732.09 908.46,-739.03"/>
</g>
<!-- components/cart/edit&#45;item&#45;quantity&#45;button.tsx&#45;&gt;components/loading&#45;dots.tsx -->
<g id="edge34" class="edge">
<title>components/cart/edit&#45;item&#45;quantity&#45;button.tsx&#45;&gt;components/loading&#45;dots.tsx</title>
<path fill="none" stroke="#757575" d="M827,-719.61C833.59,-722.05 839.97,-724.91 846,-728.23 867.53,-740.11 862.62,-755.11 882,-770.23 907.01,-789.75 939.02,-805.64 964.56,-816.58"/>
<polygon fill="#757575" stroke="#757575" points="963.09,-819.76 973.66,-820.38 965.78,-813.3 963.09,-819.76"/>
</g>
<!-- components/cart/index.tsx -->
<g id="node38" class="node">
<title>components/cart/index.tsx</title>
<path fill="none" stroke="#c6c5fe" d="M181.33,-865.11C181.33,-865.11 23.67,-865.11 23.67,-865.11 19.71,-865.11 15.75,-861.15 15.75,-857.19 15.75,-857.19 15.75,-849.28 15.75,-849.28 15.75,-845.32 19.71,-841.36 23.67,-841.36 23.67,-841.36 181.33,-841.36 181.33,-841.36 185.29,-841.36 189.25,-845.32 189.25,-849.28 189.25,-849.28 189.25,-857.19 189.25,-857.19 189.25,-861.15 185.29,-865.11 181.33,-865.11"/>
<text text-anchor="middle" x="102.5" y="-847.81" font-family="Arial" font-size="14.00" fill="#c6c5fe">components/cart/index.tsx</text>
</g>
<!-- components/cart/modal.tsx -->
<g id="node39" class="node">
<title>components/cart/modal.tsx</title>
<path fill="none" stroke="#c6c5fe" d="M463.21,-865.11C463.21,-865.11 300.29,-865.11 300.29,-865.11 296.33,-865.11 292.38,-861.15 292.38,-857.19 292.38,-857.19 292.38,-849.28 292.38,-849.28 292.38,-845.32 296.33,-841.36 300.29,-841.36 300.29,-841.36 463.21,-841.36 463.21,-841.36 467.17,-841.36 471.12,-845.32 471.12,-849.28 471.12,-849.28 471.12,-857.19 471.12,-857.19 471.12,-861.15 467.17,-865.11 463.21,-865.11"/>
<text text-anchor="middle" x="381.75" y="-847.81" font-family="Arial" font-size="14.00" fill="#c6c5fe">components/cart/modal.tsx</text>
</g>
<!-- components/cart/index.tsx&#45;&gt;components/cart/modal.tsx -->
<g id="edge36" class="edge">
<title>components/cart/index.tsx&#45;&gt;components/cart/modal.tsx</title>
<path fill="none" stroke="#757575" d="M189.7,-853.23C218.6,-853.23 251.06,-853.23 280.91,-853.23"/>
<polygon fill="#757575" stroke="#757575" points="280.69,-856.73 290.69,-853.23 280.69,-849.73 280.69,-856.73"/>
</g>
<!-- components/cart/modal.tsx&#45;&gt;lib/utils.ts -->
<g id="edge44" class="edge">
<title>components/cart/modal.tsx&#45;&gt;lib/utils.ts</title>
<path fill="none" stroke="#757575" d="M471.59,-852.52C565.84,-853.65 718.43,-860.91 846,-892.23 981.99,-925.63 1010.11,-953.94 1136.5,-1014.23 1172.3,-1031.31 1212.22,-1053.11 1239.13,-1068.23"/>
<polygon fill="#757575" stroke="#757575" points="1237.37,-1071.25 1247.8,-1073.12 1240.81,-1065.16 1237.37,-1071.25"/>
</g>
<!-- components/cart/modal.tsx&#45;&gt;lib/constants.ts -->
<g id="edge42" class="edge">
<title>components/cart/modal.tsx&#45;&gt;lib/constants.ts</title>
<path fill="none" stroke="#757575" d="M390.83,-841.06C413.04,-808.8 478.69,-721.18 558.5,-686.23 794.32,-582.96 910.17,-770.91 1136.5,-648.23 1201.44,-613.03 1243.93,-531.31 1261.47,-491.64"/>
<polygon fill="#757575" stroke="#757575" points="1264.63,-493.17 1265.34,-482.6 1258.19,-490.42 1264.63,-493.17"/>
</g>
<!-- components/cart/modal.tsx&#45;&gt;lib/shopify/types.ts -->
<g id="edge43" class="edge">
<title>components/cart/modal.tsx&#45;&gt;lib/shopify/types.ts</title>
<path fill="none" stroke="#757575" d="M401.38,-865.29C430.59,-884.99 487.45,-926.71 522.5,-974.23 546.12,-1006.27 526.15,-1033.05 558.5,-1056.23 588.32,-1077.6 815.04,-1088.57 934.74,-1092.93"/>
<polygon fill="#757575" stroke="#757575" points="934.35,-1096.42 944.47,-1093.28 934.6,-1089.42 934.35,-1096.42"/>
</g>
<!-- components/cart/modal.tsx&#45;&gt;components/cart/close&#45;cart.tsx -->
<g id="edge37" class="edge">
<title>components/cart/modal.tsx&#45;&gt;components/cart/close&#45;cart.tsx</title>
<path fill="none" stroke="#757575" d="M403.58,-840.89C435.69,-822.46 499.72,-788.01 558.5,-770.23 568.93,-767.08 579.94,-764.39 591.02,-762.1"/>
<polygon fill="#757575" stroke="#757575" points="591.49,-765.58 600.63,-760.23 590.15,-758.71 591.49,-765.58"/>
</g>
<!-- components/cart/modal.tsx&#45;&gt;components/cart/delete&#45;item&#45;button.tsx -->
<g id="edge38" class="edge">
<title>components/cart/modal.tsx&#45;&gt;components/cart/delete&#45;item&#45;button.tsx</title>
<path fill="none" stroke="#757575" d="M471.47,-847.66C500.53,-845.84 533.52,-843.77 565.25,-841.77"/>
<polygon fill="#757575" stroke="#757575" points="565.14,-845.29 574.9,-841.17 564.7,-838.3 565.14,-845.29"/>
</g>
<!-- components/cart/modal.tsx&#45;&gt;components/cart/edit&#45;item&#45;quantity&#45;button.tsx -->
<g id="edge39" class="edge">
<title>components/cart/modal.tsx&#45;&gt;components/cart/edit&#45;item&#45;quantity&#45;button.tsx</title>
<path fill="none" stroke="#757575" d="M395.13,-841.15C422.2,-815.54 489.71,-755.88 558.5,-728.23 563.54,-726.21 568.74,-724.38 574.06,-722.72"/>
<polygon fill="#757575" stroke="#757575" points="574.99,-726.09 583.63,-719.97 573.06,-719.37 574.99,-726.09"/>
</g>
<!-- components/cart/open&#45;cart.tsx -->
<g id="node40" class="node">
<title>components/cart/open&#45;cart.tsx</title>
<path fill="none" stroke="#cfffac" d="M793.46,-925.11C793.46,-925.11 611.04,-925.11 611.04,-925.11 607.08,-925.11 603.12,-921.15 603.12,-917.19 603.12,-917.19 603.12,-909.28 603.12,-909.28 603.12,-905.32 607.08,-901.36 611.04,-901.36 611.04,-901.36 793.46,-901.36 793.46,-901.36 797.42,-901.36 801.38,-905.32 801.38,-909.28 801.38,-909.28 801.38,-917.19 801.38,-917.19 801.38,-921.15 797.42,-925.11 793.46,-925.11"/>
<text text-anchor="middle" x="702.25" y="-907.81" font-family="Arial" font-size="14.00" fill="#cfffac">components/cart/open&#45;cart.tsx</text>
</g>
<!-- components/cart/modal.tsx&#45;&gt;components/cart/open&#45;cart.tsx -->
<g id="edge40" class="edge">
<title>components/cart/modal.tsx&#45;&gt;components/cart/open&#45;cart.tsx</title>
<path fill="none" stroke="#757575" d="M445.76,-865.6C479.23,-872.12 521.08,-880.21 558.5,-887.23 578.87,-891.06 600.89,-895.11 621.39,-898.85"/>
<polygon fill="#757575" stroke="#757575" points="620.65,-902.27 631.12,-900.62 621.91,-895.38 620.65,-902.27"/>
</g>
<!-- components/cart/modal.tsx&#45;&gt;components/price.tsx -->
<g id="edge41" class="edge">
<title>components/cart/modal.tsx&#45;&gt;components/price.tsx</title>
<path fill="none" stroke="#757575" d="M405.62,-865.5C437.93,-884.19 495.95,-923.11 522.5,-974.23 559.15,-1044.8 502.66,-1273.63 558.5,-1330.23 603.66,-1376.01 782.23,-1354.92 846,-1363.23 965.13,-1378.77 1102.67,-1399.33 1188.15,-1412.43"/>
<polygon fill="#757575" stroke="#757575" points="1187.43,-1415.86 1197.85,-1413.91 1188.49,-1408.94 1187.43,-1415.86"/>
</g>
<!-- components/grid/index.tsx -->
<g id="node42" class="node">
<title>components/grid/index.tsx</title>
<path fill="none" stroke="#cfffac" d="M181.33,-1764.11C181.33,-1764.11 23.67,-1764.11 23.67,-1764.11 19.71,-1764.11 15.75,-1760.15 15.75,-1756.19 15.75,-1756.19 15.75,-1748.28 15.75,-1748.28 15.75,-1744.32 19.71,-1740.36 23.67,-1740.36 23.67,-1740.36 181.33,-1740.36 181.33,-1740.36 185.29,-1740.36 189.25,-1744.32 189.25,-1748.28 189.25,-1748.28 189.25,-1756.19 189.25,-1756.19 189.25,-1760.15 185.29,-1764.11 181.33,-1764.11"/>
<text text-anchor="middle" x="102.5" y="-1746.81" font-family="Arial" font-size="14.00" fill="#cfffac">components/grid/index.tsx</text>
</g>
<!-- components/label.tsx&#45;&gt;components/price.tsx -->
<g id="edge48" class="edge">
<title>components/label.tsx&#45;&gt;components/price.tsx</title>
<path fill="none" stroke="#757575" d="M1062.94,-1473.89C1104.5,-1464.15 1162.62,-1450.54 1206.81,-1440.19"/>
<polygon fill="#757575" stroke="#757575" points="1207.6,-1443.59 1216.54,-1437.91 1206,-1436.78 1207.6,-1443.59"/>
</g>
<!-- components/layout/footer&#45;menu.tsx&#45;&gt;lib/shopify/types.ts -->
<g id="edge49" class="edge">
<title>components/layout/footer&#45;menu.tsx&#45;&gt;lib/shopify/types.ts</title>
<path fill="none" stroke="#757575" d="M816.56,-1178.99C826.92,-1175.42 836.92,-1170.91 846,-1165.23 868.92,-1150.91 858.98,-1130.38 882,-1116.23 897.68,-1106.6 916.42,-1101 934.61,-1097.84"/>
<polygon fill="#757575" stroke="#757575" points="934.96,-1101.32 944.34,-1096.39 933.93,-1094.4 934.96,-1101.32"/>
</g>
<!-- components/logo&#45;square.tsx&#45;&gt;components/icons/logo.tsx -->
<g id="edge68" class="edge">
<title>components/logo&#45;square.tsx&#45;&gt;components/icons/logo.tsx</title>
<path fill="none" stroke="#757575" d="M795.81,-793.8C814.32,-790.15 832.26,-783.05 846,-770.23 900.58,-719.35 827.9,-657.63 882,-606.23 890.09,-598.54 899.88,-593.06 910.37,-589.22"/>
<polygon fill="#757575" stroke="#757575" points="911.1,-592.66 919.62,-586.35 909.03,-585.97 911.1,-592.66"/>
</g>
<!-- components/layout/navbar/index.tsx -->
<g id="node47" class="node">
<title>components/layout/navbar/index.tsx</title>
<path fill="none" stroke="#c6c5fe" d="M489.83,-1007.11C489.83,-1007.11 273.67,-1007.11 273.67,-1007.11 269.71,-1007.11 265.75,-1003.15 265.75,-999.19 265.75,-999.19 265.75,-991.28 265.75,-991.28 265.75,-987.32 269.71,-983.36 273.67,-983.36 273.67,-983.36 489.83,-983.36 489.83,-983.36 493.79,-983.36 497.75,-987.32 497.75,-991.28 497.75,-991.28 497.75,-999.19 497.75,-999.19 497.75,-1003.15 493.79,-1007.11 489.83,-1007.11"/>
<text text-anchor="middle" x="381.75" y="-989.81" font-family="Arial" font-size="14.00" fill="#c6c5fe">components/layout/navbar/index.tsx</text>
</g>
<!-- components/layout/navbar/index.tsx&#45;&gt;lib/shopify/types.ts -->
<g id="edge56" class="edge">
<title>components/layout/navbar/index.tsx&#45;&gt;lib/shopify/types.ts</title>
<path fill="none" stroke="#757575" d="M405.14,-1007.57C450.62,-1032.59 550.25,-1087.11 558.5,-1089.23 687.58,-1122.5 844.48,-1114.07 934.72,-1104.76"/>
<polygon fill="#757575" stroke="#757575" points="934.85,-1108.27 944.42,-1103.73 934.1,-1101.31 934.85,-1108.27"/>
</g>
<!-- components/layout/navbar/index.tsx&#45;&gt;components/cart/open&#45;cart.tsx -->
<g id="edge52" class="edge">
<title>components/layout/navbar/index.tsx&#45;&gt;components/cart/open&#45;cart.tsx</title>
<path fill="none" stroke="#757575" d="M412.71,-982.89C447.28,-969.11 506.11,-947.06 558.5,-934.23 569.18,-931.62 580.38,-929.29 591.63,-927.21"/>
<polygon fill="#757575" stroke="#757575" points="592.14,-930.68 601.38,-925.49 590.92,-923.78 592.14,-930.68"/>
</g>
<!-- components/layout/navbar/index.tsx&#45;&gt;components/logo&#45;square.tsx -->
<g id="edge55" class="edge">
<title>components/layout/navbar/index.tsx&#45;&gt;components/logo&#45;square.tsx</title>
<path fill="none" stroke="#757575" d="M400.3,-983.03C428.51,-962.79 484.63,-919.96 522.5,-874.23 542.82,-849.69 532.12,-830.11 558.5,-812.23 570.2,-804.31 583.68,-798.86 597.58,-795.17"/>
<polygon fill="#757575" stroke="#757575" points="598.36,-798.58 607.32,-792.92 596.79,-791.76 598.36,-798.58"/>
</g>
<!-- components/layout/navbar/mobile&#45;menu.tsx -->
<g id="node48" class="node">
<title>components/layout/navbar/mobile&#45;menu.tsx</title>
<path fill="none" stroke="#c6c5fe" d="M833.96,-1047.11C833.96,-1047.11 570.54,-1047.11 570.54,-1047.11 566.58,-1047.11 562.62,-1043.15 562.62,-1039.19 562.62,-1039.19 562.62,-1031.28 562.62,-1031.28 562.62,-1027.32 566.58,-1023.36 570.54,-1023.36 570.54,-1023.36 833.96,-1023.36 833.96,-1023.36 837.92,-1023.36 841.88,-1027.32 841.88,-1031.28 841.88,-1031.28 841.88,-1039.19 841.88,-1039.19 841.88,-1043.15 837.92,-1047.11 833.96,-1047.11"/>
<text text-anchor="middle" x="702.25" y="-1029.81" font-family="Arial" font-size="14.00" fill="#c6c5fe">components/layout/navbar/mobile&#45;menu.tsx</text>
</g>
<!-- components/layout/navbar/index.tsx&#45;&gt;components/layout/navbar/mobile&#45;menu.tsx -->
<g id="edge53" class="edge">
<title>components/layout/navbar/index.tsx&#45;&gt;components/layout/navbar/mobile&#45;menu.tsx</title>
<path fill="none" stroke="#757575" d="M480.91,-1007.56C516.03,-1011.97 555.81,-1016.97 591.82,-1021.49"/>
<polygon fill="#757575" stroke="#757575" points="591.01,-1024.92 601.36,-1022.69 591.88,-1017.97 591.01,-1024.92"/>
</g>
<!-- components/layout/navbar/search.tsx -->
<g id="node49" class="node">
<title>components/layout/navbar/search.tsx</title>
<path fill="none" stroke="#c6c5fe" d="M1121.46,-1047.11C1121.46,-1047.11 897.04,-1047.11 897.04,-1047.11 893.08,-1047.11 889.12,-1043.15 889.12,-1039.19 889.12,-1039.19 889.12,-1031.28 889.12,-1031.28 889.12,-1027.32 893.08,-1023.36 897.04,-1023.36 897.04,-1023.36 1121.46,-1023.36 1121.46,-1023.36 1125.42,-1023.36 1129.38,-1027.32 1129.38,-1031.28 1129.38,-1031.28 1129.38,-1039.19 1129.38,-1039.19 1129.38,-1043.15 1125.42,-1047.11 1121.46,-1047.11"/>
<text text-anchor="middle" x="1009.25" y="-1029.81" font-family="Arial" font-size="14.00" fill="#c6c5fe">components/layout/navbar/search.tsx</text>
</g>
<!-- components/layout/navbar/index.tsx&#45;&gt;components/layout/navbar/search.tsx -->
<g id="edge54" class="edge">
<title>components/layout/navbar/index.tsx&#45;&gt;components/layout/navbar/search.tsx</title>
<path fill="none" stroke="#757575" d="M498.1,-997.16C591.94,-999.4 727.7,-1004.17 846,-1014.23 867.57,-1016.07 890.68,-1018.67 912.49,-1021.43"/>
<polygon fill="#757575" stroke="#757575" points="911.91,-1024.88 922.27,-1022.68 912.8,-1017.94 911.91,-1024.88"/>
</g>
<!-- components/layout/navbar/mobile&#45;menu.tsx&#45;&gt;lib/shopify/types.ts -->
<g id="edge58" class="edge">
<title>components/layout/navbar/mobile&#45;menu.tsx&#45;&gt;lib/shopify/types.ts</title>
<path fill="none" stroke="#757575" d="M773.02,-1047.56C796.26,-1051.77 822.27,-1056.59 846,-1061.23 876.92,-1067.29 911.06,-1074.38 940.02,-1080.52"/>
<polygon fill="#757575" stroke="#757575" points="939.27,-1083.94 949.78,-1082.59 940.72,-1077.09 939.27,-1083.94"/>
</g>
<!-- components/layout/navbar/mobile&#45;menu.tsx&#45;&gt;components/layout/navbar/search.tsx -->
<g id="edge57" class="edge">
<title>components/layout/navbar/mobile&#45;menu.tsx&#45;&gt;components/layout/navbar/search.tsx</title>
<path fill="none" stroke="#757575" d="M842.36,-1035.23C854.15,-1035.23 866.04,-1035.23 877.76,-1035.23"/>
<polygon fill="#757575" stroke="#757575" points="877.42,-1038.73 887.42,-1035.23 877.42,-1031.73 877.42,-1038.73"/>
</g>
<!-- components/layout/navbar/search.tsx&#45;&gt;lib/utils.ts -->
<g id="edge59" class="edge">
<title>components/layout/navbar/search.tsx&#45;&gt;lib/utils.ts</title>
<path fill="none" stroke="#757575" d="M1073.28,-1047.58C1119.92,-1056.72 1182.39,-1068.95 1224.44,-1077.19"/>
<polygon fill="#757575" stroke="#757575" points="1223.76,-1080.62 1234.25,-1079.11 1225.11,-1073.75 1223.76,-1080.62"/>
</g>
<!-- components/layout/search/filter/dropdown.tsx -->
<g id="node50" class="node">
<title>components/layout/search/filter/dropdown.tsx</title>
<path fill="none" stroke="#c6c5fe" d="M838.08,-601.11C838.08,-601.11 566.42,-601.11 566.42,-601.11 562.46,-601.11 558.5,-597.15 558.5,-593.19 558.5,-593.19 558.5,-585.28 558.5,-585.28 558.5,-581.32 562.46,-577.36 566.42,-577.36 566.42,-577.36 838.08,-577.36 838.08,-577.36 842.04,-577.36 846,-581.32 846,-585.28 846,-585.28 846,-593.19 846,-593.19 846,-597.15 842.04,-601.11 838.08,-601.11"/>
<text text-anchor="middle" x="702.25" y="-583.81" font-family="Arial" font-size="14.00" fill="#c6c5fe">components/layout/search/filter/dropdown.tsx</text>
</g>
<!-- components/layout/search/filter/item.tsx -->
<g id="node51" class="node">
<title>components/layout/search/filter/item.tsx</title>
<path fill="none" stroke="#c6c5fe" d="M1128.58,-639.11C1128.58,-639.11 889.92,-639.11 889.92,-639.11 885.96,-639.11 882,-635.15 882,-631.19 882,-631.19 882,-623.28 882,-623.28 882,-619.32 885.96,-615.36 889.92,-615.36 889.92,-615.36 1128.58,-615.36 1128.58,-615.36 1132.54,-615.36 1136.5,-619.32 1136.5,-623.28 1136.5,-623.28 1136.5,-631.19 1136.5,-631.19 1136.5,-635.15 1132.54,-639.11 1128.58,-639.11"/>
<text text-anchor="middle" x="1009.25" y="-621.81" font-family="Arial" font-size="14.00" fill="#c6c5fe">components/layout/search/filter/item.tsx</text>
</g>
<!-- components/layout/search/filter/dropdown.tsx&#45;&gt;components/layout/search/filter/item.tsx -->
<g id="edge62" class="edge">
<title>components/layout/search/filter/dropdown.tsx&#45;&gt;components/layout/search/filter/item.tsx</title>
<path fill="none" stroke="#757575" d="M802.27,-601.57C832.72,-605.37 866.41,-609.56 897.58,-613.45"/>
<polygon fill="#757575" stroke="#757575" points="897.08,-616.91 907.44,-614.67 897.95,-609.97 897.08,-616.91"/>
</g>
<!-- components/layout/search/filter/item.tsx&#45;&gt;lib/utils.ts -->
<g id="edge67" class="edge">
<title>components/layout/search/filter/item.tsx&#45;&gt;lib/utils.ts</title>
<path fill="none" stroke="#757575" d="M1031.99,-639.51C1059.81,-656.24 1107.83,-688.69 1136.5,-728.23 1216.51,-838.61 1254.47,-1002.32 1266.35,-1062.73"/>
<polygon fill="#757575" stroke="#757575" points="1262.91,-1063.35 1268.22,-1072.51 1269.78,-1062.04 1262.91,-1063.35"/>
</g>
<!-- components/layout/search/filter/item.tsx&#45;&gt;lib/constants.ts -->
<g id="edge66" class="edge">
<title>components/layout/search/filter/item.tsx&#45;&gt;lib/constants.ts</title>
<path fill="none" stroke="#757575" d="M1115.94,-614.91C1123.07,-612.49 1130,-609.62 1136.5,-606.23 1189.8,-578.46 1234.65,-521.7 1256.44,-490.67"/>
<polygon fill="#757575" stroke="#757575" points="1259.3,-492.68 1262.07,-482.46 1253.53,-488.72 1259.3,-492.68"/>
</g>
<!-- components/layout/search/filter/index.tsx -->
<g id="node52" class="node">
<title>components/layout/search/filter/index.tsx</title>
<path fill="none" stroke="#c6c5fe" d="M504.08,-647.11C504.08,-647.11 259.42,-647.11 259.42,-647.11 255.46,-647.11 251.5,-643.15 251.5,-639.19 251.5,-639.19 251.5,-631.28 251.5,-631.28 251.5,-627.32 255.46,-623.36 259.42,-623.36 259.42,-623.36 504.08,-623.36 504.08,-623.36 508.04,-623.36 512,-627.32 512,-631.28 512,-631.28 512,-639.19 512,-639.19 512,-643.15 508.04,-647.11 504.08,-647.11"/>
<text text-anchor="middle" x="381.75" y="-629.81" font-family="Arial" font-size="14.00" fill="#c6c5fe">components/layout/search/filter/index.tsx</text>
</g>
<!-- components/layout/search/filter/index.tsx&#45;&gt;lib/constants.ts -->
<g id="edge65" class="edge">
<title>components/layout/search/filter/index.tsx&#45;&gt;lib/constants.ts</title>
<path fill="none" stroke="#757575" d="M504.43,-622.9C510.71,-620.44 516.78,-617.57 522.5,-614.23 544.93,-601.16 535.96,-581.11 558.5,-568.23 670.41,-504.3 718.32,-547.84 846,-530.23 974.42,-512.52 1124.51,-490.7 1207.44,-478.54"/>
<polygon fill="#757575" stroke="#757575" points="1207.8,-482.02 1217.19,-477.11 1206.78,-475.1 1207.8,-482.02"/>
</g>
<!-- components/layout/search/filter/index.tsx&#45;&gt;components/layout/search/filter/dropdown.tsx -->
<g id="edge63" class="edge">
<title>components/layout/search/filter/index.tsx&#45;&gt;components/layout/search/filter/dropdown.tsx</title>
<path fill="none" stroke="#757575" d="M468.1,-622.91C510.14,-616.84 561.01,-609.49 604.49,-603.21"/>
<polygon fill="#757575" stroke="#757575" points="604.77,-606.71 614.16,-601.81 603.77,-599.78 604.77,-606.71"/>
</g>
<!-- components/layout/search/filter/index.tsx&#45;&gt;components/layout/search/filter/item.tsx -->
<g id="edge64" class="edge">
<title>components/layout/search/filter/index.tsx&#45;&gt;components/layout/search/filter/item.tsx</title>
<path fill="none" stroke="#757575" d="M512.35,-633.58C616.88,-632.24 763.55,-630.36 870.25,-629"/>
<polygon fill="#757575" stroke="#757575" points="870.28,-632.5 880.24,-628.87 870.19,-625.5 870.28,-632.5"/>
</g>
<!-- components/product/variant&#45;selector.tsx&#45;&gt;lib/utils.ts -->
<g id="edge78" class="edge">
<title>components/product/variant&#45;selector.tsx&#45;&gt;lib/utils.ts</title>
<path fill="none" stroke="#757575" d="M788.28,-1296.9C807.68,-1292.58 827.9,-1286.83 846,-1279.23 863.73,-1271.79 864.91,-1264.05 882,-1255.23 989.59,-1199.76 1026.39,-1208.52 1136.5,-1158.23 1172.79,-1141.66 1212.92,-1119.6 1239.74,-1104.28"/>
<polygon fill="#757575" stroke="#757575" points="1241.44,-1107.34 1248.37,-1099.32 1237.95,-1101.27 1241.44,-1107.34"/>
</g>
<!-- components/product/variant&#45;selector.tsx&#45;&gt;lib/shopify/types.ts -->
<g id="edge77" class="edge">
<title>components/product/variant&#45;selector.tsx&#45;&gt;lib/shopify/types.ts</title>
<path fill="none" stroke="#757575" d="M827.23,-1296.88C834.05,-1293.17 840.39,-1288.67 846,-1283.23 900.54,-1230.42 827.05,-1168.63 882,-1116.23 896.11,-1102.78 915.39,-1096.08 934.63,-1093.09"/>
<polygon fill="#757575" stroke="#757575" points="934.9,-1096.58 944.41,-1091.91 934.07,-1089.63 934.9,-1096.58"/>
</g>
<!-- lib/shopify/fragments/cart.ts -->
<g id="node54" class="node">
<title>lib/shopify/fragments/cart.ts</title>
<path fill="none" stroke="#c6c5fe" d="M1354.21,-146.11C1354.21,-146.11 1189.04,-146.11 1189.04,-146.11 1185.08,-146.11 1181.12,-142.15 1181.12,-138.19 1181.12,-138.19 1181.12,-130.28 1181.12,-130.28 1181.12,-126.32 1185.08,-122.36 1189.04,-122.36 1189.04,-122.36 1354.21,-122.36 1354.21,-122.36 1358.17,-122.36 1362.12,-126.32 1362.12,-130.28 1362.12,-130.28 1362.12,-138.19 1362.12,-138.19 1362.12,-142.15 1358.17,-146.11 1354.21,-146.11"/>
<text text-anchor="middle" x="1271.62" y="-128.81" font-family="Arial" font-size="14.00" fill="#c6c5fe">lib/shopify/fragments/cart.ts</text>
</g>
<!-- lib/shopify/fragments/product.ts -->
<g id="node55" class="node">
<title>lib/shopify/fragments/product.ts</title>
<path fill="none" stroke="#c6c5fe" d="M1602.33,-106.11C1602.33,-106.11 1414.67,-106.11 1414.67,-106.11 1410.71,-106.11 1406.75,-102.15 1406.75,-98.19 1406.75,-98.19 1406.75,-90.28 1406.75,-90.28 1406.75,-86.32 1410.71,-82.36 1414.67,-82.36 1414.67,-82.36 1602.33,-82.36 1602.33,-82.36 1606.29,-82.36 1610.25,-86.32 1610.25,-90.28 1610.25,-90.28 1610.25,-98.19 1610.25,-98.19 1610.25,-102.15 1606.29,-106.11 1602.33,-106.11"/>
<text text-anchor="middle" x="1508.5" y="-88.81" font-family="Arial" font-size="14.00" fill="#c6c5fe">lib/shopify/fragments/product.ts</text>
</g>
<!-- lib/shopify/fragments/cart.ts&#45;&gt;lib/shopify/fragments/product.ts -->
<g id="edge79" class="edge">
<title>lib/shopify/fragments/cart.ts&#45;&gt;lib/shopify/fragments/product.ts</title>
<path fill="none" stroke="#757575" d="M1345.01,-121.91C1369.9,-117.67 1397.98,-112.89 1423.7,-108.51"/>
<polygon fill="#757575" stroke="#757575" points="1424.19,-111.97 1433.46,-106.84 1423.01,-105.07 1424.19,-111.97"/>
</g>
<!-- lib/shopify/fragments/image.ts -->
<g id="node56" class="node">
<title>lib/shopify/fragments/image.ts</title>
<path fill="none" stroke="#cfffac" d="M1834.33,-106.11C1834.33,-106.11 1654.17,-106.11 1654.17,-106.11 1650.21,-106.11 1646.25,-102.15 1646.25,-98.19 1646.25,-98.19 1646.25,-90.28 1646.25,-90.28 1646.25,-86.32 1650.21,-82.36 1654.17,-82.36 1654.17,-82.36 1834.33,-82.36 1834.33,-82.36 1838.29,-82.36 1842.25,-86.32 1842.25,-90.28 1842.25,-90.28 1842.25,-98.19 1842.25,-98.19 1842.25,-102.15 1838.29,-106.11 1834.33,-106.11"/>
<text text-anchor="middle" x="1744.25" y="-88.81" font-family="Arial" font-size="14.00" fill="#cfffac">lib/shopify/fragments/image.ts</text>
</g>
<!-- lib/shopify/fragments/product.ts&#45;&gt;lib/shopify/fragments/image.ts -->
<g id="edge80" class="edge">
<title>lib/shopify/fragments/product.ts&#45;&gt;lib/shopify/fragments/image.ts</title>
<path fill="none" stroke="#757575" d="M1610.67,-94.23C1618.63,-94.23 1626.7,-94.23 1634.71,-94.23"/>
<polygon fill="#757575" stroke="#757575" points="1634.48,-97.73 1644.48,-94.23 1634.48,-90.73 1634.48,-97.73"/>
</g>
<!-- lib/shopify/fragments/seo.ts -->
<g id="node57" class="node">
<title>lib/shopify/fragments/seo.ts</title>
<path fill="none" stroke="#cfffac" d="M1826.46,-64.11C1826.46,-64.11 1662.04,-64.11 1662.04,-64.11 1658.08,-64.11 1654.12,-60.15 1654.12,-56.19 1654.12,-56.19 1654.12,-48.28 1654.12,-48.28 1654.12,-44.32 1658.08,-40.36 1662.04,-40.36 1662.04,-40.36 1826.46,-40.36 1826.46,-40.36 1830.42,-40.36 1834.38,-44.32 1834.38,-48.28 1834.38,-48.28 1834.38,-56.19 1834.38,-56.19 1834.38,-60.15 1830.42,-64.11 1826.46,-64.11"/>
<text text-anchor="middle" x="1744.25" y="-46.81" font-family="Arial" font-size="14.00" fill="#cfffac">lib/shopify/fragments/seo.ts</text>
</g>
<!-- lib/shopify/fragments/product.ts&#45;&gt;lib/shopify/fragments/seo.ts -->
<g id="edge81" class="edge">
<title>lib/shopify/fragments/product.ts&#45;&gt;lib/shopify/fragments/seo.ts</title>
<path fill="none" stroke="#757575" d="M1578.37,-81.86C1605,-77.08 1635.66,-71.57 1663.26,-66.61"/>
<polygon fill="#757575" stroke="#757575" points="1663.76,-70.07 1672.98,-64.86 1662.52,-63.18 1663.76,-70.07"/>
</g>
<!-- lib/shopify/index.ts -->
<g id="node58" class="node">
<title>lib/shopify/index.ts</title>
<path fill="none" stroke="#c6c5fe" d="M757.46,-205.11C757.46,-205.11 647.04,-205.11 647.04,-205.11 643.08,-205.11 639.12,-201.15 639.12,-197.19 639.12,-197.19 639.12,-189.28 639.12,-189.28 639.12,-185.32 643.08,-181.36 647.04,-181.36 647.04,-181.36 757.46,-181.36 757.46,-181.36 761.42,-181.36 765.38,-185.32 765.38,-189.28 765.38,-189.28 765.38,-197.19 765.38,-197.19 765.38,-201.15 761.42,-205.11 757.46,-205.11"/>
<text text-anchor="middle" x="702.25" y="-187.81" font-family="Arial" font-size="14.00" fill="#c6c5fe">lib/shopify/index.ts</text>
</g>
<!-- lib/shopify/index.ts&#45;&gt;lib/utils.ts -->
<g id="edge91" class="edge">
<title>lib/shopify/index.ts&#45;&gt;lib/utils.ts</title>
<path fill="none" stroke="#757575" d="M720.08,-205.47C792.7,-258.56 1078.12,-470.51 1136.5,-564.23 1242.64,-734.64 1265.08,-986.07 1269.56,-1063.02"/>
<polygon fill="#757575" stroke="#757575" points="1266.05,-1062.89 1270.08,-1072.69 1273.04,-1062.52 1266.05,-1062.89"/>
</g>
<!-- lib/shopify/index.ts&#45;&gt;lib/constants.ts -->
<g id="edge82" class="edge">
<title>lib/shopify/index.ts&#45;&gt;lib/constants.ts</title>
<path fill="none" stroke="#757575" d="M750.82,-205.54C786.7,-214.55 837.23,-226.65 882,-235.23 994.32,-256.78 1039.57,-212.54 1136.5,-273.23 1203.58,-315.24 1245.47,-404.45 1262.24,-446.46"/>
<polygon fill="#757575" stroke="#757575" points="1258.89,-447.5 1265.75,-455.56 1265.42,-444.97 1258.89,-447.5"/>
</g>
<!-- lib/shopify/index.ts&#45;&gt;lib/shopify/types.ts -->
<g id="edge89" class="edge">
<title>lib/shopify/index.ts&#45;&gt;lib/shopify/types.ts</title>
<path fill="none" stroke="#757575" d="M711.37,-205.49C736.83,-244.64 815.2,-371.03 846,-488.23 862.07,-549.4 842.87,-1006.56 882,-1056.23 894.94,-1072.66 914.66,-1082.33 934.7,-1087.98"/>
<polygon fill="#757575" stroke="#757575" points="933.81,-1091.36 944.35,-1090.35 935.48,-1084.56 933.81,-1091.36"/>
</g>
<!-- lib/shopify/mutations/cart.ts -->
<g id="node59" class="node">
<title>lib/shopify/mutations/cart.ts</title>
<path fill="none" stroke="#c6c5fe" d="M1091.08,-184.11C1091.08,-184.11 927.42,-184.11 927.42,-184.11 923.46,-184.11 919.5,-180.15 919.5,-176.19 919.5,-176.19 919.5,-168.28 919.5,-168.28 919.5,-164.32 923.46,-160.36 927.42,-160.36 927.42,-160.36 1091.08,-160.36 1091.08,-160.36 1095.04,-160.36 1099,-164.32 1099,-168.28 1099,-168.28 1099,-176.19 1099,-176.19 1099,-180.15 1095.04,-184.11 1091.08,-184.11"/>
<text text-anchor="middle" x="1009.25" y="-166.81" font-family="Arial" font-size="14.00" fill="#c6c5fe">lib/shopify/mutations/cart.ts</text>
</g>
<!-- lib/shopify/index.ts&#45;&gt;lib/shopify/mutations/cart.ts -->
<g id="edge83" class="edge">
<title>lib/shopify/index.ts&#45;&gt;lib/shopify/mutations/cart.ts</title>
<path fill="none" stroke="#757575" d="M765.71,-188.93C806.6,-186.12 860.96,-182.38 907.84,-179.15"/>
<polygon fill="#757575" stroke="#757575" points="908.03,-182.64 917.77,-178.46 907.55,-175.66 908.03,-182.64"/>
</g>
<!-- lib/shopify/queries/cart.ts -->
<g id="node60" class="node">
<title>lib/shopify/queries/cart.ts</title>
<path fill="none" stroke="#c6c5fe" d="M1083.58,-142.11C1083.58,-142.11 934.92,-142.11 934.92,-142.11 930.96,-142.11 927,-138.15 927,-134.19 927,-134.19 927,-126.28 927,-126.28 927,-122.32 930.96,-118.36 934.92,-118.36 934.92,-118.36 1083.58,-118.36 1083.58,-118.36 1087.54,-118.36 1091.5,-122.32 1091.5,-126.28 1091.5,-126.28 1091.5,-134.19 1091.5,-134.19 1091.5,-138.15 1087.54,-142.11 1083.58,-142.11"/>
<text text-anchor="middle" x="1009.25" y="-124.81" font-family="Arial" font-size="14.00" fill="#c6c5fe">lib/shopify/queries/cart.ts</text>
</g>
<!-- lib/shopify/index.ts&#45;&gt;lib/shopify/queries/cart.ts -->
<g id="edge84" class="edge">
<title>lib/shopify/index.ts&#45;&gt;lib/shopify/queries/cart.ts</title>
<path fill="none" stroke="#757575" d="M752,-180.86C787.83,-172 837.77,-160.1 882,-151.23 893.59,-148.91 905.82,-146.65 917.92,-144.52"/>
<polygon fill="#757575" stroke="#757575" points="918.22,-148.02 927.48,-142.86 917.03,-141.12 918.22,-148.02"/>
</g>
<!-- lib/shopify/queries/collection.ts -->
<g id="node61" class="node">
<title>lib/shopify/queries/collection.ts</title>
<path fill="none" stroke="#c6c5fe" d="M1362.83,-24.11C1362.83,-24.11 1180.42,-24.11 1180.42,-24.11 1176.46,-24.11 1172.5,-20.15 1172.5,-16.19 1172.5,-16.19 1172.5,-8.28 1172.5,-8.28 1172.5,-4.32 1176.46,-0.36 1180.42,-0.36 1180.42,-0.36 1362.83,-0.36 1362.83,-0.36 1366.79,-0.36 1370.75,-4.32 1370.75,-8.28 1370.75,-8.28 1370.75,-16.19 1370.75,-16.19 1370.75,-20.15 1366.79,-24.11 1362.83,-24.11"/>
<text text-anchor="middle" x="1271.62" y="-6.81" font-family="Arial" font-size="14.00" fill="#c6c5fe">lib/shopify/queries/collection.ts</text>
</g>
<!-- lib/shopify/index.ts&#45;&gt;lib/shopify/queries/collection.ts -->
<g id="edge85" class="edge">
<title>lib/shopify/index.ts&#45;&gt;lib/shopify/queries/collection.ts</title>
<path fill="none" stroke="#757575" d="M712.44,-181.05C736.35,-150.4 804.14,-70.29 882,-38.23 970.83,-1.66 1080.75,2.33 1161,-1.37"/>
<polygon fill="#757575" stroke="#757575" points="1160.44,-4.84 1170.61,-1.86 1160.8,2.15 1160.44,-4.84"/>
</g>
<!-- lib/shopify/queries/menu.ts -->
<g id="node62" class="node">
<title>lib/shopify/queries/menu.ts</title>
<path fill="none" stroke="#cfffac" d="M1089.58,-226.11C1089.58,-226.11 928.92,-226.11 928.92,-226.11 924.96,-226.11 921,-222.15 921,-218.19 921,-218.19 921,-210.28 921,-210.28 921,-206.32 924.96,-202.36 928.92,-202.36 928.92,-202.36 1089.58,-202.36 1089.58,-202.36 1093.54,-202.36 1097.5,-206.32 1097.5,-210.28 1097.5,-210.28 1097.5,-218.19 1097.5,-218.19 1097.5,-222.15 1093.54,-226.11 1089.58,-226.11"/>
<text text-anchor="middle" x="1009.25" y="-208.81" font-family="Arial" font-size="14.00" fill="#cfffac">lib/shopify/queries/menu.ts</text>
</g>
<!-- lib/shopify/index.ts&#45;&gt;lib/shopify/queries/menu.ts -->
<g id="edge86" class="edge">
<title>lib/shopify/index.ts&#45;&gt;lib/shopify/queries/menu.ts</title>
<path fill="none" stroke="#757575" d="M765.71,-197.54C807.09,-200.38 862.26,-204.18 909.53,-207.44"/>
<polygon fill="#757575" stroke="#757575" points="909,-210.91 919.22,-208.1 909.48,-203.93 909,-210.91"/>
</g>
<!-- lib/shopify/queries/page.ts -->
<g id="node63" class="node">
<title>lib/shopify/queries/page.ts</title>
<path fill="none" stroke="#c6c5fe" d="M1586.58,-64.11C1586.58,-64.11 1430.42,-64.11 1430.42,-64.11 1426.46,-64.11 1422.5,-60.15 1422.5,-56.19 1422.5,-56.19 1422.5,-48.28 1422.5,-48.28 1422.5,-44.32 1426.46,-40.36 1430.42,-40.36 1430.42,-40.36 1586.58,-40.36 1586.58,-40.36 1590.54,-40.36 1594.5,-44.32 1594.5,-48.28 1594.5,-48.28 1594.5,-56.19 1594.5,-56.19 1594.5,-60.15 1590.54,-64.11 1586.58,-64.11"/>
<text text-anchor="middle" x="1508.5" y="-46.81" font-family="Arial" font-size="14.00" fill="#c6c5fe">lib/shopify/queries/page.ts</text>
</g>
<!-- lib/shopify/index.ts&#45;&gt;lib/shopify/queries/page.ts -->
<g id="edge87" class="edge">
<title>lib/shopify/index.ts&#45;&gt;lib/shopify/queries/page.ts</title>
<path fill="none" stroke="#757575" d="M716.81,-181.19C745.11,-156.93 813.49,-102.65 882,-81.23 1062.1,-24.92 1285.54,-31.64 1410.75,-41.81"/>
<polygon fill="#757575" stroke="#757575" points="1410.42,-45.29 1420.67,-42.64 1411,-38.32 1410.42,-45.29"/>
</g>
<!-- lib/shopify/queries/product.ts -->
<g id="node64" class="node">
<title>lib/shopify/queries/product.ts</title>
<path fill="none" stroke="#c6c5fe" d="M1357.21,-104.11C1357.21,-104.11 1186.04,-104.11 1186.04,-104.11 1182.08,-104.11 1178.12,-100.15 1178.12,-96.19 1178.12,-96.19 1178.12,-88.28 1178.12,-88.28 1178.12,-84.32 1182.08,-80.36 1186.04,-80.36 1186.04,-80.36 1357.21,-80.36 1357.21,-80.36 1361.17,-80.36 1365.12,-84.32 1365.12,-88.28 1365.12,-88.28 1365.12,-96.19 1365.12,-96.19 1365.12,-100.15 1361.17,-104.11 1357.21,-104.11"/>
<text text-anchor="middle" x="1271.62" y="-86.81" font-family="Arial" font-size="14.00" fill="#c6c5fe">lib/shopify/queries/product.ts</text>
</g>
<!-- lib/shopify/index.ts&#45;&gt;lib/shopify/queries/product.ts -->
<g id="edge88" class="edge">
<title>lib/shopify/index.ts&#45;&gt;lib/shopify/queries/product.ts</title>
<path fill="none" stroke="#757575" d="M722.66,-180.94C754.49,-161.52 820.41,-124.41 882,-109.23 976.22,-86.03 1087.1,-83.52 1166.26,-85.78"/>
<polygon fill="#757575" stroke="#757575" points="1166.08,-89.27 1176.19,-86.1 1166.3,-82.28 1166.08,-89.27"/>
</g>
<!-- lib/type&#45;guards.ts -->
<g id="node65" class="node">
<title>lib/type&#45;guards.ts</title>
<path fill="none" stroke="#cfffac" d="M1060.71,-306.11C1060.71,-306.11 957.79,-306.11 957.79,-306.11 953.83,-306.11 949.88,-302.15 949.88,-298.19 949.88,-298.19 949.88,-290.28 949.88,-290.28 949.88,-286.32 953.83,-282.36 957.79,-282.36 957.79,-282.36 1060.71,-282.36 1060.71,-282.36 1064.67,-282.36 1068.62,-286.32 1068.62,-290.28 1068.62,-290.28 1068.62,-298.19 1068.62,-298.19 1068.62,-302.15 1064.67,-306.11 1060.71,-306.11"/>
<text text-anchor="middle" x="1009.25" y="-288.81" font-family="Arial" font-size="14.00" fill="#cfffac">lib/type&#45;guards.ts</text>
</g>
<!-- lib/shopify/index.ts&#45;&gt;lib/type&#45;guards.ts -->
<g id="edge90" class="edge">
<title>lib/shopify/index.ts&#45;&gt;lib/type&#45;guards.ts</title>
<path fill="none" stroke="#757575" d="M728.13,-205.5C762.15,-221.84 825.42,-250.72 882,-268.23 900.05,-273.82 919.94,-278.55 938.47,-282.38"/>
<polygon fill="#757575" stroke="#757575" points="937.53,-285.77 948.03,-284.3 938.91,-278.9 937.53,-285.77"/>
</g>
<!-- lib/shopify/mutations/cart.ts&#45;&gt;lib/shopify/fragments/cart.ts -->
<g id="edge92" class="edge">
<title>lib/shopify/mutations/cart.ts&#45;&gt;lib/shopify/fragments/cart.ts</title>
<path fill="none" stroke="#757575" d="M1094.79,-159.9C1120.38,-156.16 1148.67,-152.03 1174.95,-148.2"/>
<polygon fill="#757575" stroke="#757575" points="1175.18,-151.7 1184.57,-146.79 1174.17,-144.77 1175.18,-151.7"/>
</g>
<!-- lib/shopify/queries/cart.ts&#45;&gt;lib/shopify/fragments/cart.ts -->
<g id="edge93" class="edge">
<title>lib/shopify/queries/cart.ts&#45;&gt;lib/shopify/fragments/cart.ts</title>
<path fill="none" stroke="#757575" d="M1091.92,-131.49C1116.47,-131.87 1143.71,-132.29 1169.38,-132.68"/>
<polygon fill="#757575" stroke="#757575" points="1169.08,-136.18 1179.14,-132.83 1169.19,-129.18 1169.08,-136.18"/>
</g>
<!-- lib/shopify/queries/collection.ts&#45;&gt;lib/shopify/fragments/product.ts -->
<g id="edge94" class="edge">
<title>lib/shopify/queries/collection.ts&#45;&gt;lib/shopify/fragments/product.ts</title>
<path fill="none" stroke="#757575" d="M1295.26,-24.41C1321.44,-38.04 1366.15,-59.95 1406.75,-73.23 1413.33,-75.39 1420.22,-77.37 1427.18,-79.18"/>
<polygon fill="#757575" stroke="#757575" points="1426.12,-82.52 1436.67,-81.53 1427.8,-75.73 1426.12,-82.52"/>
</g>
<!-- lib/shopify/queries/collection.ts&#45;&gt;lib/shopify/fragments/seo.ts -->
<g id="edge95" class="edge">
<title>lib/shopify/queries/collection.ts&#45;&gt;lib/shopify/fragments/seo.ts</title>
<path fill="none" stroke="#757575" d="M1371.08,-15.17C1438.54,-17.82 1529.98,-22.66 1610.25,-31.23 1627.22,-33.05 1645.33,-35.53 1662.54,-38.16"/>
<polygon fill="#757575" stroke="#757575" points="1661.79,-41.59 1672.21,-39.67 1662.87,-34.67 1661.79,-41.59"/>
</g>
<!-- lib/shopify/queries/page.ts&#45;&gt;lib/shopify/fragments/seo.ts -->
<g id="edge96" class="edge">
<title>lib/shopify/queries/page.ts&#45;&gt;lib/shopify/fragments/seo.ts</title>
<path fill="none" stroke="#757575" d="M1594.88,-52.23C1610.31,-52.23 1626.53,-52.23 1642.35,-52.23"/>
<polygon fill="#757575" stroke="#757575" points="1642.27,-55.73 1652.27,-52.23 1642.27,-48.73 1642.27,-55.73"/>
</g>
<!-- lib/shopify/queries/product.ts&#45;&gt;lib/shopify/fragments/product.ts -->
<g id="edge97" class="edge">
<title>lib/shopify/queries/product.ts&#45;&gt;lib/shopify/fragments/product.ts</title>
<path fill="none" stroke="#757575" d="M1365.45,-93.03C1375.24,-93.11 1385.26,-93.19 1395.23,-93.28"/>
<polygon fill="#757575" stroke="#757575" points="1394.91,-96.78 1404.94,-93.36 1394.97,-89.78 1394.91,-96.78"/>
</g>
<!-- license.md -->
<g id="node66" class="node">
<title>license.md</title>
<path fill="none" stroke="#cfffac" d="M135.21,-1806.11C135.21,-1806.11 69.79,-1806.11 69.79,-1806.11 65.83,-1806.11 61.88,-1802.15 61.88,-1798.19 61.88,-1798.19 61.88,-1790.28 61.88,-1790.28 61.88,-1786.32 65.83,-1782.36 69.79,-1782.36 69.79,-1782.36 135.21,-1782.36 135.21,-1782.36 139.17,-1782.36 143.12,-1786.32 143.12,-1790.28 143.12,-1790.28 143.12,-1798.19 143.12,-1798.19 143.12,-1802.15 139.17,-1806.11 135.21,-1806.11"/>
<text text-anchor="middle" x="102.5" y="-1788.81" font-family="Arial" font-size="14.00" fill="#cfffac">license.md</text>
</g>
</g>
</svg>
